<svg xmlns="http://www.w3.org/2000/svg" xmlns:xlink="http://www.w3.org/1999/xlink" width="793" zoomAndPan="magnify" viewBox="0 0 594.95996 842.24997" height="1122" preserveAspectRatio="xMidYMid meet" version="1.0"><defs><clipPath id="0d42266eb4"><path d="M 181 252.125 L 298 252.125 L 298 579 L 181 579 Z M 181 252.125 " clip-rule="nonzero"/></clipPath><clipPath id="bb10f769c8"><path d="M 297 252.125 L 413.59375 252.125 L 413.59375 579 L 297 579 Z M 297 252.125 " clip-rule="nonzero"/></clipPath><clipPath id="a39ba01394"><path d="M 199 289 L 301 289 L 301 588.28125 L 199 588.28125 Z M 199 289 " clip-rule="nonzero"/></clipPath></defs><g clip-path="url(#0d42266eb4)"><path fill="#fbc8a3" d="M 183.589844 510.636719 C 188.457031 512.183594 193.597656 512.855469 201.507812 504.722656 C 204.355469 501.789062 208.113281 492.441406 210.265625 486.53125 C 211.96875 481.867188 216.988281 462.75 217.570312 467.058594 C 217.824219 468.921875 217.710938 468.613281 217.894531 470.484375 C 218.847656 491.417969 230.425781 557.796875 230.832031 563.273438 C 231.527344 572.625 235.609375 574.824219 238.300781 574.945312 C 245.796875 575.28125 246.160156 570.292969 246.363281 563.601562 C 246.628906 554.757812 238.5625 495.644531 239.15625 489.53125 C 240.417969 494.351562 240.78125 497.96875 241.113281 501.886719 C 242.027344 512.824219 243.15625 522.710938 244.621094 533.507812 C 245.078125 536.867188 245.542969 540.226562 246.007812 543.582031 C 247.078125 551.246094 248.167969 558.921875 249.292969 566.578125 C 249.898438 570.699219 249.636719 576.1875 254.070312 578.257812 C 257.152344 579.699219 261.589844 578.914062 263.953125 576.375 C 266.320312 573.820312 265.8125 569.945312 265.394531 566.785156 C 264.878906 562.898438 264.832031 559.015625 264.507812 555.109375 C 263.261719 540.140625 261.316406 525.226562 260.292969 510.230469 C 259.757812 502.332031 259.078125 496.167969 259.378906 488.25 C 259.441406 486.765625 258.835938 486.246094 260.046875 486.46875 C 261.394531 486.710938 263.320312 523.65625 264.183594 529.316406 C 265.792969 539.90625 265.933594 547.46875 267.617188 558.050781 C 268.046875 560.734375 268.296875 563.617188 269.113281 566.222656 C 271.199219 572.894531 282.351562 575.097656 282.957031 563.882812 C 283.402344 555.300781 282.085938 507.164062 280.722656 486.402344 C 280.582031 484.25 280.308594 481.199219 281.699219 481.582031 C 283.949219 482.203125 283.316406 519.402344 284.929688 528.679688 C 285.351562 531.109375 285.082031 538.097656 290.78125 537.976562 C 295.765625 537.871094 296.085938 531.667969 296.3125 526.957031 C 297.417969 503.835938 297.578125 473.285156 295.566406 452.957031 C 294.4375 441.539062 290.761719 407.835938 278.386719 390.78125 C 278.128906 390.417969 280.847656 286.300781 280.167969 252.136719 L 204.75 252.136719 C 207.390625 277.0625 219.863281 394.414062 219.226562 396.21875 C 216.082031 405.070312 211.867188 407.945312 205.230469 424.351562 C 193.304688 453.84375 194.316406 474.414062 189.550781 483.886719 C 186.359375 490.226562 182.210938 501.742188 181.292969 505.304688 C 180.75 507.347656 181.066406 509.832031 183.589844 510.636719 " fill-opacity="1" fill-rule="nonzero"/></g><g clip-path="url(#bb10f769c8)"><path fill="#fbc8a3" d="M 404.6875 483.886719 C 399.921875 474.414062 400.933594 453.84375 389.007812 424.351562 C 382.371094 407.945312 378.15625 405.070312 375.011719 396.21875 C 374.375 394.414062 386.847656 277.0625 389.492188 252.136719 L 314.074219 252.136719 C 313.390625 286.300781 316.113281 390.417969 315.851562 390.78125 C 303.476562 407.835938 299.804688 441.539062 298.671875 452.957031 C 296.660156 473.285156 296.820312 503.835938 297.921875 526.957031 C 298.152344 531.667969 298.472656 537.871094 303.453125 537.976562 C 309.15625 538.097656 308.886719 531.109375 309.3125 528.679688 C 310.925781 519.402344 310.285156 482.203125 312.539062 481.582031 C 313.929688 481.199219 313.65625 484.25 313.511719 486.402344 C 312.152344 507.164062 310.835938 555.300781 311.28125 563.882812 C 311.890625 575.097656 323.039062 572.894531 325.128906 566.222656 C 325.945312 563.617188 326.1875 560.734375 326.621094 558.050781 C 328.300781 547.46875 328.449219 539.90625 330.058594 529.316406 C 330.914062 523.65625 332.847656 486.710938 334.191406 486.46875 C 335.402344 486.246094 334.796875 486.765625 334.859375 488.25 C 335.160156 496.167969 334.484375 502.332031 333.945312 510.230469 C 332.917969 525.226562 330.976562 540.140625 329.734375 555.109375 C 329.402344 559.015625 329.359375 562.898438 328.84375 566.785156 C 328.425781 569.945312 327.917969 573.820312 330.285156 576.375 C 332.648438 578.914062 337.085938 579.699219 340.164062 578.257812 C 344.597656 576.1875 344.339844 570.699219 344.949219 566.578125 C 346.070312 558.921875 347.160156 551.246094 348.234375 543.582031 C 348.699219 540.226562 349.160156 536.867188 349.613281 533.507812 C 351.082031 522.710938 352.214844 512.824219 353.128906 501.886719 C 353.457031 497.96875 353.820312 494.351562 355.082031 489.53125 C 355.679688 495.644531 347.609375 554.757812 347.875 563.601562 C 348.078125 570.292969 348.441406 575.28125 355.941406 574.945312 C 358.628906 574.824219 362.714844 572.625 363.410156 563.273438 C 363.8125 557.796875 375.390625 491.417969 376.34375 470.484375 C 376.53125 468.613281 376.417969 468.921875 376.667969 467.058594 C 377.25 462.75 382.273438 481.867188 383.972656 486.53125 C 386.121094 492.441406 389.882812 501.789062 392.734375 504.722656 C 400.640625 512.855469 405.78125 512.183594 410.648438 510.636719 C 413.167969 509.832031 413.484375 507.347656 412.945312 505.304688 C 412.03125 501.742188 407.878906 490.226562 404.6875 483.886719 " fill-opacity="1" fill-rule="nonzero"/></g><path fill="#d3d2d2" d="M 300.871094 554.097656 C 300.863281 553.265625 300.839844 552.449219 300.820312 551.640625 C 300.804688 550.84375 300.785156 550.039062 300.777344 549.234375 C 302.738281 548.230469 306.527344 546.226562 311.382812 543.285156 C 311.351562 545.007812 311.320312 546.667969 311.292969 548.253906 C 306.550781 551.113281 302.839844 553.082031 300.871094 554.097656 M 294.058594 554.035156 C 291.917969 552.960938 287.957031 550.890625 282.9375 547.910156 C 282.914062 546.328125 282.882812 544.667969 282.84375 542.949219 C 287.835938 545.914062 291.792969 547.988281 293.96875 549.078125 C 293.972656 550.003906 293.992188 550.90625 294.015625 551.800781 C 294.035156 552.554688 294.050781 553.300781 294.058594 554.035156 M 329.15625 536.113281 C 329.355469 534.367188 329.582031 532.566406 329.855469 530.667969 C 330.675781 530.035156 331.5 529.390625 332.320312 528.734375 C 332.144531 530.511719 331.960938 532.296875 331.777344 534.074219 C 330.898438 534.769531 330.023438 535.449219 329.15625 536.113281 M 265.074219 536.007812 C 264.203125 535.359375 263.328125 534.703125 262.457031 534.023438 C 262.273438 532.242188 262.089844 530.46875 261.910156 528.691406 C 262.730469 529.328125 263.554688 529.960938 264.367188 530.574219 C 264.640625 532.46875 264.871094 534.265625 265.074219 536.007812 M 242.425781 515.601562 C 242.066406 515.203125 241.71875 514.804688 241.367188 514.40625 C 241.148438 512.46875 240.941406 510.585938 240.742188 508.773438 C 241.105469 509.195312 241.476562 509.625 241.851562 510.050781 C 242.035156 511.914062 242.226562 513.761719 242.425781 515.601562 M 351.871094 515.101562 C 352.066406 513.253906 352.257812 511.402344 352.4375 509.53125 C 352.816406 509.085938 353.191406 508.644531 353.5625 508.199219 C 353.363281 510.015625 353.152344 511.90625 352.929688 513.855469 C 352.582031 514.273438 352.226562 514.6875 351.871094 515.101562 " fill-opacity="1" fill-rule="nonzero"/><path fill="#d0a485" d="M 282.9375 547.910156 C 277.8125 544.867188 271.582031 540.867188 265.074219 536.007812 C 264.871094 534.265625 264.640625 532.46875 264.367188 530.574219 C 271.097656 535.640625 277.550781 539.796875 282.84375 542.949219 C 282.882812 544.667969 282.914062 546.328125 282.9375 547.910156 M 262.457031 534.023438 C 259.210938 531.511719 255.925781 528.796875 252.695312 525.882812 C 248.9375 522.496094 245.511719 519.0625 242.425781 515.601562 C 242.226562 513.761719 242.035156 511.914062 241.851562 510.050781 C 245.089844 513.730469 248.703125 517.375 252.695312 520.972656 C 255.742188 523.722656 258.84375 526.296875 261.910156 528.691406 C 262.089844 530.46875 262.273438 532.242188 262.457031 534.023438 M 241.367188 514.40625 C 227.40625 498.335938 220.65625 481.601562 221.390625 464.964844 C 222.042969 479.730469 228.558594 494.507812 240.742188 508.773438 C 240.941406 510.585938 241.148438 512.46875 241.367188 514.40625 " fill-opacity="1" fill-rule="nonzero"/><path fill="#d0a485" d="M 311.292969 548.253906 C 311.320312 546.667969 311.351562 545.007812 311.382812 543.285156 C 316.613281 540.128906 323.085938 535.890625 329.855469 530.667969 C 329.582031 532.566406 329.355469 534.367188 329.15625 536.113281 C 322.597656 541.121094 316.359375 545.191406 311.292969 548.253906 M 331.777344 534.074219 C 331.960938 532.296875 332.144531 530.511719 332.320312 528.734375 C 335.21875 526.417969 338.148438 523.929688 341.046875 521.277344 C 345.253906 517.414062 349.054688 513.5 352.4375 509.53125 C 352.257812 511.402344 352.066406 513.253906 351.871094 515.101562 C 348.632812 518.839844 345.019531 522.539062 341.046875 526.1875 C 337.972656 529.007812 334.851562 531.640625 331.777344 534.074219 M 352.929688 513.855469 C 353.152344 511.90625 353.363281 510.015625 353.5625 508.199219 C 365.722656 493.511719 372.222656 478.210938 372.847656 462.871094 C 373.554688 480.109375 366.808594 497.378906 352.929688 513.855469 " fill-opacity="1" fill-rule="nonzero"/><path fill="#c7d2d3" d="M 370.707031 444.253906 L 370.664062 444.101562 L 370.613281 443.953125 C 370.507812 443.660156 367.972656 436.667969 361.59375 429.71875 C 355.667969 423.257812 345.15625 415.554688 328.765625 415.554688 C 328.132812 415.554688 313.167969 415.683594 302.796875 426.539062 C 300.152344 429.308594 298.054688 432.5 296.511719 436.105469 C 288.308594 421.636719 272.234375 417.246094 261.734375 417.246094 C 261.324219 417.246094 260.949219 417.253906 260.601562 417.265625 C 235.984375 418.238281 228.175781 432.996094 224.445312 444.011719 C 215.710938 469.8125 225.476562 496.421875 252.695312 520.972656 C 272.710938 539.023438 294.851562 549.53125 295.785156 549.96875 L 297.558594 550.804688 L 299.324219 549.957031 C 300.21875 549.527344 321.484375 539.222656 341.046875 521.277344 C 367.5625 496.949219 377.820312 470.316406 370.707031 444.253906 " fill-opacity="1" fill-rule="nonzero"/><path fill="#c7d2d3" d="M 370.707031 444.253906 L 370.664062 444.101562 L 370.613281 443.953125 C 370.507812 443.660156 367.972656 436.667969 361.59375 429.71875 C 355.667969 423.257812 345.15625 415.554688 328.765625 415.554688 C 328.132812 415.554688 313.167969 415.683594 302.796875 426.539062 C 300.152344 429.308594 298.054688 432.5 296.511719 436.105469 C 288.308594 421.636719 272.234375 417.246094 261.734375 417.246094 C 261.324219 417.246094 260.949219 417.253906 260.601562 417.265625 C 235.984375 418.238281 228.175781 432.996094 224.445312 444.011719 C 215.710938 469.8125 225.476562 496.421875 252.695312 520.972656 C 272.710938 539.023438 294.851562 549.53125 295.785156 549.96875 L 297.558594 550.804688 L 299.324219 549.957031 C 300.21875 549.527344 321.484375 539.222656 341.046875 521.277344 C 367.5625 496.949219 377.820312 470.316406 370.707031 444.253906 " fill-opacity="1" fill-rule="nonzero"/><path fill="#dee4e4" d="M 300.8125 437.042969 C 302.070312 434.605469 303.632812 432.394531 305.511719 430.425781 C 314.785156 420.722656 328.167969 420.609375 328.734375 420.609375 C 340.242188 420.609375 348.507812 424.855469 354.097656 429.480469 C 348.875 426.332031 342.0625 424.097656 333.429688 423.941406 C 333.210938 423.9375 333 423.933594 332.785156 423.933594 C 315.078125 423.933594 300.8125 437.042969 300.8125 437.042969 " fill-opacity="1" fill-rule="nonzero"/><path fill="#cc2525" d="M 355.519531 477.761719 C 353.722656 477.683594 351.914062 477.597656 350.117188 477.691406 C 348.941406 477.730469 347.769531 477.808594 346.597656 477.925781 C 346.320312 477.972656 345.945312 478.039062 345.476562 478.113281 C 335.867188 479.996094 326.753906 483.699219 317.195312 485.753906 C 297.324219 490.027344 276.816406 487.542969 256.832031 485.328125 C 250.59375 484.636719 244.234375 483.617188 237.972656 484.273438 C 235.359375 484.542969 231.871094 485.867188 231.703125 487.992188 C 249.226562 523.503906 297.542969 546.222656 297.542969 546.222656 C 297.542969 546.222656 352.808594 519.691406 365.984375 478.183594 C 362.492188 478.132812 359.011719 477.910156 355.519531 477.761719 " fill-opacity="1" fill-rule="nonzero"/><path fill="#c02222" d="M 355.519531 477.761719 C 353.722656 477.683594 351.914062 477.597656 350.117188 477.691406 C 349.375 477.714844 348.632812 477.765625 347.890625 477.816406 C 347.871094 478.058594 347.839844 478.296875 347.796875 478.542969 C 344.6875 495.867188 336.265625 512.128906 324.738281 525.335938 C 320.90625 529.726562 316.613281 534.171875 311.894531 538.097656 C 329.21875 527.246094 357.121094 506.097656 365.984375 478.183594 C 362.492188 478.132812 359.011719 477.910156 355.519531 477.761719 " fill-opacity="1" fill-rule="nonzero"/><path fill="#b01f1f" d="M 231.769531 487.617188 C 232.289062 485.714844 235.515625 484.527344 237.972656 484.273438 C 244.234375 483.617188 250.59375 484.636719 256.832031 485.328125 C 276.816406 487.542969 297.324219 490.027344 317.195312 485.753906 C 326.753906 483.699219 335.867188 479.996094 345.476562 478.113281 C 345.945312 478.039062 346.320312 477.972656 346.597656 477.925781 C 347.769531 477.808594 348.941406 477.730469 350.117188 477.691406 C 351.914062 477.597656 353.722656 477.683594 355.519531 477.761719 C 358.835938 477.902344 362.585938 478.160156 365.984375 478.183594 C 365.371094 476.085938 364.332031 474.660156 363.304688 472.792969 C 362.886719 472.039062 362.460938 471.277344 361.96875 470.5625 C 361.957031 470.542969 360.664062 468.914062 361.421875 469.785156 C 360.839844 469.117188 360.246094 468.453125 359.589844 467.855469 C 359.292969 467.585938 359.144531 467.441406 359.09375 467.371094 C 359.019531 467.324219 358.9375 467.269531 358.835938 467.203125 C 358.132812 466.726562 357.417969 466.261719 356.65625 465.871094 C 356.597656 465.839844 355.082031 465.144531 355.671875 465.359375 C 354.585938 464.941406 353.484375 464.566406 352.351562 464.304688 C 351.667969 464.148438 350.980469 464.003906 350.285156 463.886719 C 350.058594 463.867188 349.136719 463.753906 349.070312 463.75 C 347.777344 463.660156 346.484375 463.609375 345.1875 463.632812 C 343.878906 463.664062 342.570312 463.726562 341.265625 463.855469 C 340.746094 463.910156 340.230469 463.960938 339.714844 464.023438 C 339.59375 464.046875 338.460938 464.210938 338.421875 464.214844 C 333.082031 465.109375 327.746094 466.40625 322.546875 467.929688 C 315.78125 469.914062 309.464844 472.238281 302.339844 472.648438 C 295.542969 473.042969 288.429688 472.207031 282.089844 471.507812 C 275.121094 470.738281 268.109375 470.828125 261.109375 471.015625 C 258.492188 471.085938 255.871094 471.226562 253.265625 471.515625 C 252.882812 471.558594 252.492188 471.601562 252.101562 471.652344 C 251.835938 471.691406 251.21875 471.78125 251.097656 471.800781 C 249.996094 471.984375 248.898438 472.179688 247.8125 472.433594 C 246.566406 472.71875 245.324219 473.035156 244.109375 473.429688 C 243.597656 473.597656 243.085938 473.761719 242.582031 473.949219 C 242.402344 474.019531 241.410156 474.441406 241.597656 474.347656 C 240.839844 474.703125 240.089844 475.082031 239.367188 475.511719 C 238.925781 475.777344 238.480469 476.042969 238.054688 476.335938 C 237.902344 476.441406 237.214844 476.984375 237.214844 476.960938 C 236.472656 477.605469 235.761719 478.28125 235.128906 479.03125 C 235.03125 479.144531 234.964844 479.21875 234.910156 479.28125 L 234.859375 479.359375 C 234.554688 479.800781 234.253906 480.242188 233.992188 480.707031 C 233.722656 481.183594 233.449219 481.664062 233.214844 482.160156 C 233.15625 482.285156 233.113281 482.382812 233.074219 482.460938 L 232.992188 482.699219 C 232.59375 483.855469 232.273438 485.019531 232.015625 486.214844 C 231.914062 486.691406 231.746094 487.144531 231.527344 487.5625 L 231.769531 487.617188 " fill-opacity="1" fill-rule="nonzero"/><path fill="#b32723" d="M 309.125 477.375 C 306.386719 477.375 303.675781 477.152344 301.058594 476.664062 C 303.027344 476.65625 305.023438 476.507812 307.054688 476.183594 C 313.492188 475.179688 319.234375 471.683594 325.574219 470.277344 C 330.484375 469.1875 335.308594 467.765625 340.253906 466.84375 C 340.886719 466.726562 341.519531 466.628906 342.15625 466.527344 L 342.378906 466.488281 C 342.484375 466.480469 342.667969 466.460938 342.949219 466.433594 C 344.183594 466.289062 345.433594 466.230469 346.675781 466.203125 C 346.839844 466.199219 346.996094 466.195312 347.160156 466.195312 C 348.03125 466.195312 348.898438 466.25 349.769531 466.332031 C 349.738281 466.328125 349.710938 466.328125 349.699219 466.328125 C 349.507812 466.328125 350.648438 466.492188 350.8125 466.527344 C 351.375 466.648438 351.921875 466.8125 352.472656 466.996094 C 352.441406 466.984375 352.425781 466.980469 352.421875 466.980469 C 352.371094 466.980469 353.269531 467.332031 353.429688 467.417969 C 353.910156 467.664062 354.359375 467.972656 354.804688 468.277344 C 354.863281 468.328125 354.9375 468.398438 355.054688 468.5 C 355.445312 468.828125 355.808594 469.183594 356.171875 469.539062 C 356.550781 469.914062 356.90625 470.308594 357.257812 470.703125 L 357.4375 470.902344 L 357.5625 471.082031 C 357.867188 471.507812 358.136719 471.964844 358.398438 472.421875 C 357.523438 472.683594 356.59375 472.78125 355.597656 472.78125 C 354.199219 472.78125 352.671875 472.585938 351.011719 472.386719 C 348.839844 472.121094 346.714844 472 344.605469 472 C 340.296875 472 336.066406 472.515625 331.667969 473.402344 C 325.414062 474.660156 319.210938 476.78125 313.179688 477.21875 C 311.828125 477.320312 310.472656 477.375 309.125 477.375 " fill-opacity="1" fill-rule="nonzero"/><path fill="#df725c" d="M 271.066406 528.039062 C 265.703125 524.367188 259.878906 519.949219 254.246094 514.867188 C 244.183594 505.792969 236.789062 496.402344 232.125 486.878906 C 232.632812 486.152344 233.546875 485.5625 234.597656 485.125 C 238.941406 496.390625 247.089844 507.515625 258.941406 518.199219 C 262.96875 521.832031 267.085938 525.117188 271.066406 528.039062 " fill-opacity="1" fill-rule="nonzero"/><path fill="#dee4e4" d="M 231.941406 486.503906 C 225.492188 473.113281 224.445312 459.460938 228.984375 446.050781 C 232.320312 436.203125 239.304688 423.003906 261.3125 422.132812 C 261.625 422.125 261.964844 422.117188 262.324219 422.117188 C 269.304688 422.117188 279.035156 424.292969 286.585938 430.71875 C 279.992188 426.847656 272.621094 425.453125 267.023438 425.453125 C 266.660156 425.453125 266.320312 425.457031 266.011719 425.46875 C 243.996094 426.339844 237.019531 439.535156 233.683594 449.386719 C 230.054688 460.105469 229.992188 470.980469 233.414062 481.757812 C 233.34375 481.890625 233.28125 482.027344 233.214844 482.160156 C 233.15625 482.285156 233.113281 482.382812 233.074219 482.460938 L 232.992188 482.699219 C 232.59375 483.855469 232.273438 485.019531 232.015625 486.214844 C 231.996094 486.3125 231.972656 486.410156 231.941406 486.503906 " fill-opacity="1" fill-rule="nonzero"/><path fill="#cd6854" d="M 232.125 486.878906 C 232.066406 486.753906 232.003906 486.628906 231.941406 486.503906 C 231.972656 486.410156 231.996094 486.3125 232.015625 486.214844 C 232.273438 485.019531 232.59375 483.855469 232.992188 482.699219 L 233.074219 482.460938 C 233.113281 482.382812 233.15625 482.285156 233.214844 482.160156 C 233.28125 482.027344 233.34375 481.890625 233.414062 481.757812 C 233.773438 482.882812 234.164062 484.003906 234.597656 485.125 C 233.546875 485.5625 232.632812 486.152344 232.125 486.878906 " fill-opacity="1" fill-rule="nonzero"/><path fill="#cc2525" d="M 257.21875 587.421875 C 253.097656 587.421875 248.726562 587.011719 244.582031 586.234375 C 235.765625 584.585938 228.5 581.632812 222.980469 577.460938 C 217.335938 573.191406 212.015625 566.097656 209.742188 559.808594 C 207.164062 552.671875 205.445312 544.265625 205.03125 536.753906 C 204.605469 529.027344 204.5625 521.214844 204.519531 513.65625 C 204.46875 504.738281 204.417969 495.519531 203.734375 486.496094 C 203.332031 481.203125 202.84375 475.824219 202.367188 470.617188 C 201.292969 458.796875 200.183594 446.617188 200.003906 434.535156 C 199.84375 423.664062 200.445312 413.984375 201.84375 404.941406 C 204.960938 384.773438 217.660156 363.183594 227.867188 345.828125 C 233.011719 337.085938 237.445312 329.546875 238.957031 324.847656 C 241.742188 316.222656 242.589844 305.449219 241.488281 292.835938 C 241.363281 291.429688 242.402344 290.1875 243.808594 290.066406 L 244.03125 290.058594 C 245.367188 290.058594 246.460938 291.058594 246.574219 292.390625 C 247.738281 305.6875 246.8125 317.132812 243.816406 326.417969 C 242.132812 331.65625 237.5625 339.421875 232.273438 348.417969 C 222.285156 365.394531 209.859375 386.523438 206.890625 405.726562 C 205.535156 414.476562 204.953125 423.875 205.113281 434.460938 C 205.285156 446.347656 206.386719 458.433594 207.449219 470.117188 C 207.929688 475.351562 208.417969 480.742188 208.824219 486.105469 C 209.519531 495.3125 209.578125 504.625 209.625 513.628906 C 209.667969 521.125 209.710938 528.871094 210.128906 536.472656 C 210.515625 543.511719 212.125 551.378906 214.542969 558.066406 C 216.480469 563.417969 221.214844 569.714844 226.0625 573.378906 C 230.941406 577.070312 237.488281 579.703125 245.519531 581.207031 C 249.367188 581.925781 253.40625 582.304688 257.207031 582.304688 C 257.898438 582.304688 258.582031 582.292969 259.261719 582.269531 C 267.15625 581.984375 275.449219 579.699219 282.605469 575.84375 C 288.015625 572.933594 292.039062 568.066406 293.941406 562.144531 C 295.039062 558.726562 294.953125 555.351562 294.867188 551.78125 C 294.808594 549.433594 294.75 547.003906 295.015625 544.441406 C 295.160156 543.140625 296.257812 542.15625 297.578125 542.15625 L 297.8125 542.167969 C 299.226562 542.3125 300.25 543.574219 300.097656 544.976562 C 299.863281 547.210938 299.917969 549.46875 299.972656 551.65625 C 300.066406 555.496094 300.164062 559.46875 298.800781 563.707031 C 296.496094 570.898438 291.605469 576.808594 285.027344 580.351562 C 277.191406 584.570312 268.109375 587.0625 259.449219 587.382812 C 258.714844 587.40625 257.964844 587.421875 257.21875 587.421875 " fill-opacity="1" fill-rule="nonzero"/><g clip-path="url(#a39ba01394)"><path fill="#c7d2d3" d="M 294.15625 544.519531 C 293.898438 547.074219 293.960938 549.476562 294.015625 551.800781 C 294.097656 555.296875 294.179688 558.601562 293.132812 561.878906 C 291.300781 567.59375 287.417969 572.289062 282.203125 575.097656 C 275.160156 578.890625 267 581.132812 259.230469 581.417969 C 258.566406 581.441406 257.886719 581.453125 257.207031 581.453125 C 253.457031 581.453125 249.472656 581.082031 245.679688 580.367188 C 237.773438 578.890625 231.347656 576.308594 226.574219 572.699219 C 221.847656 569.125 217.226562 562.988281 215.34375 557.777344 C 212.957031 551.167969 211.367188 543.382812 210.980469 536.425781 C 210.5625 528.847656 210.515625 521.109375 210.476562 513.625 C 210.425781 504.605469 210.375 495.277344 209.675781 486.039062 C 209.265625 480.675781 208.773438 475.273438 208.296875 470.054688 C 207.238281 458.371094 206.136719 446.304688 205.960938 434.449219 C 205.804688 423.914062 206.382812 414.5625 207.734375 405.859375 C 210.675781 386.816406 223.054688 365.765625 233.003906 348.855469 C 238.324219 339.8125 242.910156 332.011719 244.628906 326.683594 C 247.660156 317.289062 248.597656 305.722656 247.421875 292.316406 C 247.269531 290.542969 245.808594 289.203125 244.03125 289.203125 C 243.933594 289.203125 243.835938 289.207031 243.738281 289.214844 C 241.863281 289.382812 240.476562 291.039062 240.640625 292.910156 C 241.734375 305.410156 240.894531 316.066406 238.148438 324.585938 C 236.664062 329.199219 232.25 336.695312 227.144531 345.382812 C 216.894531 362.8125 204.148438 384.484375 201.003906 404.8125 C 199.597656 413.898438 198.992188 423.628906 199.152344 434.546875 C 199.332031 446.664062 200.441406 458.863281 201.519531 470.65625 C 201.992188 475.890625 202.480469 481.273438 202.882812 486.558594 C 203.566406 495.554688 203.621094 504.765625 203.667969 513.664062 C 203.710938 521.234375 203.753906 529.054688 204.179688 536.800781 C 204.597656 544.394531 206.335938 552.886719 208.945312 560.101562 C 211.269531 566.527344 216.703125 573.777344 222.46875 578.140625 C 228.09375 582.390625 235.476562 585.398438 244.425781 587.070312 C 248.621094 587.859375 253.042969 588.273438 257.21875 588.273438 C 257.964844 588.273438 258.726562 588.261719 259.476562 588.230469 C 268.269531 587.914062 277.484375 585.378906 285.429688 581.101562 C 292.199219 577.457031 297.242188 571.367188 299.613281 563.96875 C 301.015625 559.59375 300.917969 555.550781 300.820312 551.640625 C 300.769531 549.476562 300.714844 547.242188 300.941406 545.066406 C 300.96875 544.863281 300.96875 544.660156 300.957031 544.460938 L 294.15625 544.519531 M 244.03125 290.90625 C 244.902344 290.90625 245.652344 291.574219 245.726562 292.460938 C 246.882812 305.644531 245.96875 316.984375 243.007812 326.15625 C 241.351562 331.304688 236.804688 339.035156 231.535156 347.992188 C 221.515625 365.027344 209.046875 386.230469 206.050781 405.597656 C 204.6875 414.394531 204.105469 423.839844 204.261719 434.476562 C 204.4375 446.398438 205.539062 458.503906 206.601562 470.210938 C 207.078125 475.4375 207.570312 480.84375 207.976562 486.171875 C 208.671875 495.347656 208.722656 504.644531 208.773438 513.636719 C 208.816406 521.144531 208.859375 528.90625 209.28125 536.519531 C 209.671875 543.636719 211.300781 551.59375 213.742188 558.359375 C 215.726562 563.851562 220.582031 570.304688 225.550781 574.058594 C 230.53125 577.828125 237.203125 580.515625 245.367188 582.042969 C 249.289062 582.777344 253.339844 583.15625 257.207031 583.15625 C 257.910156 583.15625 258.601562 583.148438 259.289062 583.121094 C 267.316406 582.832031 275.742188 580.511719 283.011719 576.597656 C 288.613281 573.578125 292.78125 568.539062 294.75 562.40625 C 295.886719 558.851562 295.804688 555.40625 295.714844 551.761719 C 295.667969 549.691406 295.613281 547.570312 295.789062 545.363281 C 295.808594 545.085938 295.847656 544.785156 295.878906 544.507812 L 299.28125 544.441406 C 299.261719 544.605469 299.21875 545.21875 299.203125 545.382812 C 299.019531 547.507812 299.070312 549.625 299.121094 551.679688 C 299.210938 555.449219 299.304688 559.34375 297.992188 563.445312 C 295.753906 570.429688 291.007812 576.164062 284.625 579.597656 C 276.902344 583.757812 267.949219 586.21875 259.417969 586.53125 C 258.6875 586.554688 257.957031 586.566406 257.21875 586.566406 C 253.136719 586.566406 248.871094 586.167969 244.742188 585.394531 C 236.050781 583.769531 228.90625 580.867188 223.496094 576.78125 C 217.96875 572.601562 212.765625 565.664062 210.546875 559.519531 C 207.988281 552.457031 206.289062 544.140625 205.878906 536.707031 C 205.457031 529.007812 205.414062 521.203125 205.371094 513.652344 C 205.320312 504.722656 205.269531 495.488281 204.582031 486.425781 C 204.179688 481.125 203.6875 475.734375 203.214844 470.519531 C 202.140625 458.75 201.035156 446.578125 200.855469 434.523438 C 200.695312 423.695312 201.296875 414.066406 202.683594 405.074219 C 205.777344 385.066406 218.433594 363.546875 228.601562 346.261719 C 233.765625 337.480469 238.226562 329.902344 239.769531 325.105469 C 242.585938 316.371094 243.449219 305.488281 242.335938 292.757812 C 242.253906 291.824219 242.945312 290.996094 243.882812 290.914062 L 244.03125 290.90625 " fill-opacity="1" fill-rule="nonzero"/></g><path fill="#f4f4f4" d="M 224.0625 316.425781 C 224.667969 314.699219 226.558594 313.792969 228.28125 314.398438 L 258.550781 325.078125 C 260.273438 325.683594 261.175781 327.578125 260.570312 329.304688 L 258.507812 335.160156 C 257.898438 336.886719 256.015625 337.789062 254.292969 337.183594 L 224.019531 326.507812 C 222.296875 325.898438 221.390625 324.007812 222 322.28125 L 224.0625 316.425781 " fill-opacity="1" fill-rule="nonzero"/><path fill="#e9e9e9" d="M 251.988281 331.957031 C 252.265625 332.058594 252.570312 331.914062 252.667969 331.632812 C 252.765625 331.355469 252.621094 331.050781 252.339844 330.949219 C 252.0625 330.851562 251.757812 330.996094 251.660156 331.273438 C 251.5625 331.554688 251.710938 331.859375 251.988281 331.957031 " fill-opacity="1" fill-rule="nonzero"/><path fill="#e9e9e9" d="M 251.296875 333.921875 C 251.578125 334.019531 251.882812 333.875 251.980469 333.59375 C 252.078125 333.316406 251.929688 333.011719 251.648438 332.914062 C 251.375 332.816406 251.070312 332.960938 250.964844 333.238281 C 250.875 333.519531 251.019531 333.824219 251.296875 333.921875 " fill-opacity="1" fill-rule="nonzero"/><path fill="#e9e9e9" d="M 250.273438 332.121094 C 250.550781 332.21875 250.855469 332.070312 250.953125 331.792969 C 251.050781 331.519531 250.90625 331.207031 250.625 331.109375 C 250.347656 331.011719 250.042969 331.160156 249.945312 331.4375 C 249.847656 331.71875 249.996094 332.023438 250.273438 332.121094 " fill-opacity="1" fill-rule="nonzero"/><path fill="#e9e9e9" d="M 253.367188 328.03125 C 253.648438 328.132812 253.949219 327.984375 254.050781 327.703125 C 254.148438 327.421875 254.003906 327.117188 253.722656 327.019531 C 253.445312 326.921875 253.140625 327.070312 253.042969 327.347656 C 252.945312 327.625 253.089844 327.933594 253.367188 328.03125 " fill-opacity="1" fill-rule="nonzero"/><path fill="#e9e9e9" d="M 250.960938 330.160156 C 251.238281 330.257812 251.546875 330.109375 251.644531 329.828125 C 251.742188 329.550781 251.597656 329.246094 251.320312 329.148438 C 251.039062 329.046875 250.734375 329.199219 250.636719 329.476562 C 250.539062 329.753906 250.683594 330.0625 250.960938 330.160156 " fill-opacity="1" fill-rule="nonzero"/><path fill="#e9e9e9" d="M 254.058594 326.066406 C 254.335938 326.164062 254.644531 326.019531 254.742188 325.738281 C 254.839844 325.460938 254.695312 325.15625 254.414062 325.058594 C 254.136719 324.957031 253.832031 325.105469 253.730469 325.382812 C 253.632812 325.660156 253.777344 325.96875 254.058594 326.066406 " fill-opacity="1" fill-rule="nonzero"/><path fill="#e9e9e9" d="M 252.34375 326.230469 C 252.621094 326.328125 252.929688 326.175781 253.027344 325.902344 C 253.125 325.625 252.976562 325.320312 252.699219 325.222656 C 252.421875 325.125 252.117188 325.269531 252.019531 325.546875 C 251.921875 325.824219 252.066406 326.132812 252.34375 326.230469 " fill-opacity="1" fill-rule="nonzero"/><path fill="#e9e9e9" d="M 251.652344 328.191406 C 251.933594 328.289062 252.238281 328.144531 252.335938 327.863281 C 252.433594 327.585938 252.289062 327.285156 252.007812 327.1875 C 251.730469 327.085938 251.425781 327.230469 251.328125 327.507812 C 251.226562 327.789062 251.378906 328.097656 251.652344 328.191406 " fill-opacity="1" fill-rule="nonzero"/><path fill="#e9e9e9" d="M 252.679688 329.996094 C 252.953125 330.09375 253.261719 329.945312 253.359375 329.667969 C 253.457031 329.390625 253.3125 329.082031 253.03125 328.984375 C 252.753906 328.882812 252.449219 329.03125 252.347656 329.3125 C 252.253906 329.589844 252.398438 329.898438 252.679688 329.996094 " fill-opacity="1" fill-rule="nonzero"/><path fill="#e9e9e9" d="M 254.355469 335.003906 C 254.636719 335.101562 254.941406 334.953125 255.039062 334.675781 C 255.136719 334.394531 254.992188 334.089844 254.714844 333.992188 C 254.433594 333.894531 254.128906 334.042969 254.03125 334.324219 C 253.933594 334.597656 254.078125 334.90625 254.355469 335.003906 " fill-opacity="1" fill-rule="nonzero"/><path fill="#e9e9e9" d="M 255.046875 333.035156 C 255.328125 333.136719 255.632812 332.992188 255.730469 332.710938 C 255.828125 332.433594 255.679688 332.128906 255.40625 332.03125 C 255.125 331.933594 254.820312 332.074219 254.722656 332.355469 C 254.625 332.636719 254.769531 332.9375 255.046875 333.035156 " fill-opacity="1" fill-rule="nonzero"/><path fill="#e9e9e9" d="M 252.644531 335.164062 C 252.921875 335.261719 253.226562 335.117188 253.324219 334.839844 C 253.425781 334.558594 253.277344 334.253906 253 334.15625 C 252.722656 334.058594 252.414062 334.199219 252.316406 334.480469 C 252.21875 334.761719 252.363281 335.066406 252.644531 335.164062 " fill-opacity="1" fill-rule="nonzero"/><path fill="#e9e9e9" d="M 255.738281 331.074219 C 256.019531 331.171875 256.324219 331.027344 256.421875 330.75 C 256.519531 330.46875 256.371094 330.164062 256.09375 330.066406 C 255.816406 329.96875 255.511719 330.113281 255.414062 330.390625 C 255.316406 330.671875 255.460938 330.976562 255.738281 331.074219 " fill-opacity="1" fill-rule="nonzero"/><path fill="#e9e9e9" d="M 255.40625 327.308594 C 255.683594 327.410156 255.988281 327.261719 256.085938 326.980469 C 256.183594 326.703125 256.039062 326.398438 255.761719 326.300781 C 255.480469 326.203125 255.175781 326.347656 255.078125 326.625 C 254.980469 326.902344 255.128906 327.210938 255.40625 327.308594 " fill-opacity="1" fill-rule="nonzero"/><path fill="#e9e9e9" d="M 253.332031 333.203125 C 253.613281 333.300781 253.917969 333.15625 254.015625 332.875 C 254.113281 332.597656 253.964844 332.289062 253.691406 332.191406 C 253.414062 332.09375 253.105469 332.242188 253.007812 332.519531 C 252.910156 332.800781 253.054688 333.105469 253.332031 333.203125 " fill-opacity="1" fill-rule="nonzero"/><path fill="#e9e9e9" d="M 254.027344 331.238281 C 254.304688 331.339844 254.609375 331.1875 254.707031 330.910156 C 254.804688 330.628906 254.65625 330.324219 254.378906 330.226562 C 254.101562 330.128906 253.796875 330.277344 253.699219 330.554688 C 253.601562 330.835938 253.746094 331.140625 254.027344 331.238281 " fill-opacity="1" fill-rule="nonzero"/><path fill="#e9e9e9" d="M 254.714844 329.273438 C 254.996094 329.371094 255.300781 329.222656 255.398438 328.945312 C 255.496094 328.664062 255.347656 328.363281 255.070312 328.265625 C 254.792969 328.167969 254.484375 328.3125 254.390625 328.589844 C 254.292969 328.867188 254.4375 329.171875 254.714844 329.273438 " fill-opacity="1" fill-rule="nonzero"/><path fill="#e9e9e9" d="M 245.867188 329.800781 C 246.144531 329.898438 246.453125 329.75 246.550781 329.46875 C 246.648438 329.195312 246.496094 328.886719 246.21875 328.789062 C 245.945312 328.691406 245.632812 328.839844 245.539062 329.117188 C 245.441406 329.394531 245.589844 329.699219 245.867188 329.800781 " fill-opacity="1" fill-rule="nonzero"/><path fill="#e9e9e9" d="M 246.554688 327.835938 C 246.832031 327.9375 247.140625 327.785156 247.238281 327.507812 C 247.335938 327.226562 247.191406 326.921875 246.910156 326.824219 C 246.632812 326.726562 246.324219 326.871094 246.226562 327.15625 C 246.128906 327.429688 246.277344 327.738281 246.554688 327.835938 " fill-opacity="1" fill-rule="nonzero"/><path fill="#e9e9e9" d="M 247.242188 325.871094 C 247.523438 325.96875 247.832031 325.824219 247.929688 325.546875 C 248.027344 325.265625 247.882812 324.960938 247.601562 324.859375 C 247.324219 324.765625 247.015625 324.90625 246.917969 325.1875 C 246.820312 325.464844 246.96875 325.773438 247.242188 325.871094 " fill-opacity="1" fill-rule="nonzero"/><path fill="#e9e9e9" d="M 247.933594 323.90625 C 248.214844 324.003906 248.523438 323.863281 248.621094 323.582031 C 248.714844 323.300781 248.574219 322.996094 248.292969 322.898438 C 248.015625 322.800781 247.707031 322.945312 247.609375 323.222656 C 247.511719 323.503906 247.660156 323.8125 247.933594 323.90625 " fill-opacity="1" fill-rule="nonzero"/><path fill="#e9e9e9" d="M 247.210938 331.042969 C 247.492188 331.140625 247.796875 330.992188 247.894531 330.714844 C 247.992188 330.433594 247.84375 330.128906 247.570312 330.027344 C 247.292969 329.929688 246.984375 330.082031 246.886719 330.359375 C 246.789062 330.640625 246.933594 330.945312 247.210938 331.042969 " fill-opacity="1" fill-rule="nonzero"/><path fill="#e9e9e9" d="M 246.519531 333.003906 C 246.796875 333.105469 247.105469 332.953125 247.203125 332.679688 C 247.300781 332.398438 247.15625 332.09375 246.875 331.996094 C 246.597656 331.898438 246.292969 332.042969 246.195312 332.324219 C 246.097656 332.601562 246.246094 332.90625 246.519531 333.003906 " fill-opacity="1" fill-rule="nonzero"/><path fill="#e9e9e9" d="M 246.222656 324.070312 C 246.5 324.167969 246.804688 324.019531 246.902344 323.738281 C 247 323.460938 246.855469 323.15625 246.578125 323.058594 C 246.300781 322.960938 245.996094 323.109375 245.898438 323.386719 C 245.800781 323.667969 245.945312 323.972656 246.222656 324.070312 " fill-opacity="1" fill-rule="nonzero"/><path fill="#e9e9e9" d="M 249.582031 334.082031 C 249.863281 334.183594 250.167969 334.039062 250.265625 333.757812 C 250.359375 333.476562 250.214844 333.175781 249.9375 333.078125 C 249.65625 332.980469 249.351562 333.121094 249.253906 333.402344 C 249.160156 333.679688 249.304688 333.984375 249.582031 334.082031 " fill-opacity="1" fill-rule="nonzero"/><path fill="#e9e9e9" d="M 256.429688 329.113281 C 256.710938 329.210938 257.015625 329.0625 257.113281 328.78125 C 257.210938 328.5 257.0625 328.199219 256.78125 328.097656 C 256.507812 328.003906 256.203125 328.148438 256.105469 328.429688 C 256.007812 328.710938 256.152344 329.015625 256.429688 329.113281 " fill-opacity="1" fill-rule="nonzero"/><path fill="#e9e9e9" d="M 245.175781 331.761719 C 245.453125 331.859375 245.761719 331.714844 245.859375 331.4375 C 245.957031 331.15625 245.808594 330.851562 245.527344 330.753906 C 245.253906 330.65625 244.945312 330.800781 244.847656 331.078125 C 244.75 331.359375 244.898438 331.667969 245.175781 331.761719 " fill-opacity="1" fill-rule="nonzero"/><path fill="#e9e9e9" d="M 248.925781 330.878906 C 249.203125 330.976562 249.507812 330.835938 249.609375 330.550781 C 249.707031 330.273438 249.5625 329.96875 249.285156 329.871094 C 249.003906 329.773438 248.699219 329.917969 248.601562 330.195312 C 248.5 330.476562 248.644531 330.78125 248.925781 330.878906 " fill-opacity="1" fill-rule="nonzero"/><path fill="#e9e9e9" d="M 249.617188 328.914062 C 249.894531 329.015625 250.199219 328.863281 250.300781 328.585938 C 250.398438 328.304688 250.25 328.003906 249.976562 327.902344 C 249.695312 327.804688 249.390625 327.953125 249.289062 328.234375 C 249.191406 328.511719 249.335938 328.816406 249.617188 328.914062 " fill-opacity="1" fill-rule="nonzero"/><path fill="#e9e9e9" d="M 247.902344 329.074219 C 248.183594 329.171875 248.488281 329.03125 248.585938 328.75 C 248.683594 328.46875 248.535156 328.164062 248.257812 328.066406 C 247.980469 327.972656 247.675781 328.121094 247.578125 328.394531 C 247.480469 328.671875 247.625 328.980469 247.902344 329.074219 " fill-opacity="1" fill-rule="nonzero"/><path fill="#e9e9e9" d="M 251 324.988281 C 251.277344 325.085938 251.582031 324.941406 251.679688 324.660156 C 251.78125 324.382812 251.632812 324.074219 251.355469 323.980469 C 251.078125 323.878906 250.773438 324.023438 250.671875 324.300781 C 250.574219 324.585938 250.71875 324.890625 251 324.988281 " fill-opacity="1" fill-rule="nonzero"/><path fill="#e9e9e9" d="M 250.308594 326.949219 C 250.585938 327.046875 250.890625 326.902344 250.992188 326.625 C 251.089844 326.34375 250.941406 326.039062 250.660156 325.941406 C 250.386719 325.84375 250.082031 325.988281 249.980469 326.265625 C 249.882812 326.546875 250.027344 326.851562 250.308594 326.949219 " fill-opacity="1" fill-rule="nonzero"/><path fill="#e9e9e9" d="M 248.59375 327.113281 C 248.875 327.210938 249.179688 327.066406 249.277344 326.785156 C 249.375 326.507812 249.226562 326.203125 248.945312 326.105469 C 248.671875 326.007812 248.367188 326.152344 248.269531 326.429688 C 248.171875 326.710938 248.3125 327.015625 248.59375 327.113281 " fill-opacity="1" fill-rule="nonzero"/><path fill="#e9e9e9" d="M 248.234375 332.84375 C 248.511719 332.941406 248.820312 332.796875 248.917969 332.515625 C 249.015625 332.238281 248.871094 331.933594 248.589844 331.835938 C 248.3125 331.734375 248.007812 331.878906 247.90625 332.15625 C 247.808594 332.4375 247.957031 332.742188 248.234375 332.84375 " fill-opacity="1" fill-rule="nonzero"/><path fill="#e9e9e9" d="M 249.285156 325.152344 C 249.5625 325.25 249.871094 325.097656 249.96875 324.820312 C 250.066406 324.546875 249.917969 324.234375 249.636719 324.136719 C 249.363281 324.039062 249.058594 324.1875 248.960938 324.46875 C 248.863281 324.746094 249.007812 325.050781 249.285156 325.152344 " fill-opacity="1" fill-rule="nonzero"/><path fill="#e9e9e9" d="M 253.652344 336.960938 L 253.6875 336.972656 C 253.953125 337.058594 254.25 336.910156 254.347656 336.636719 C 254.445312 336.363281 254.300781 336.054688 254.023438 335.957031 C 253.742188 335.855469 253.4375 336.003906 253.339844 336.285156 C 253.246094 336.558594 253.386719 336.859375 253.652344 336.960938 " fill-opacity="1" fill-rule="nonzero"/><path fill="#e9e9e9" d="M 256.519531 337.171875 C 256.648438 337.128906 256.769531 337.070312 256.890625 337.003906 C 256.75 337.011719 256.617188 337.070312 256.519531 337.171875 " fill-opacity="1" fill-rule="nonzero"/><path fill="#e9e9e9" d="M 245.53125 326.035156 C 245.808594 326.132812 246.113281 325.988281 246.214844 325.707031 C 246.3125 325.429688 246.164062 325.125 245.886719 325.027344 C 245.605469 324.929688 245.304688 325.070312 245.207031 325.351562 C 245.109375 325.628906 245.253906 325.9375 245.53125 326.035156 " fill-opacity="1" fill-rule="nonzero"/><path fill="#e9e9e9" d="M 250.59375 335.882812 L 250.621094 335.890625 C 250.894531 335.980469 251.191406 335.832031 251.289062 335.558594 C 251.386719 335.285156 251.238281 334.976562 250.957031 334.878906 C 250.683594 334.777344 250.378906 334.925781 250.28125 335.203125 C 250.183594 335.480469 250.324219 335.78125 250.59375 335.882812 " fill-opacity="1" fill-rule="nonzero"/><path fill="#e9e9e9" d="M 244.472656 333.71875 L 244.5 333.730469 C 244.773438 333.816406 245.070312 333.675781 245.167969 333.398438 C 245.265625 333.121094 245.117188 332.816406 244.839844 332.71875 C 244.5625 332.621094 244.253906 332.769531 244.160156 333.042969 C 244.0625 333.316406 244.199219 333.617188 244.472656 333.71875 " fill-opacity="1" fill-rule="nonzero"/><path fill="#e9e9e9" d="M 247.53125 334.800781 L 247.5625 334.8125 C 247.832031 334.902344 248.128906 334.753906 248.226562 334.480469 C 248.324219 334.199219 248.179688 333.894531 247.902344 333.796875 C 247.621094 333.699219 247.316406 333.847656 247.21875 334.125 C 247.121094 334.394531 247.261719 334.695312 247.53125 334.800781 " fill-opacity="1" fill-rule="nonzero"/><path fill="#e9e9e9" d="M 260.179688 328.230469 C 260.390625 328.300781 260.609375 328.238281 260.753906 328.082031 C 260.742188 327.796875 260.695312 327.519531 260.613281 327.253906 L 260.539062 327.214844 C 260.257812 327.117188 259.953125 327.265625 259.855469 327.546875 C 259.757812 327.820312 259.902344 328.128906 260.179688 328.230469 " fill-opacity="1" fill-rule="nonzero"/><path fill="#e9e9e9" d="M 256.09375 325.34375 C 256.375 325.441406 256.679688 325.296875 256.777344 325.023438 C 256.875 324.742188 256.734375 324.445312 256.464844 324.335938 L 256.441406 324.332031 C 256.164062 324.246094 255.867188 324.386719 255.769531 324.664062 C 255.671875 324.941406 255.820312 325.246094 256.09375 325.34375 " fill-opacity="1" fill-rule="nonzero"/><path fill="#e9e9e9" d="M 253.035156 324.265625 C 253.3125 324.367188 253.621094 324.214844 253.71875 323.9375 C 253.816406 323.664062 253.671875 323.359375 253.402344 323.257812 L 253.375 323.25 C 253.105469 323.160156 252.804688 323.308594 252.710938 323.585938 C 252.609375 323.863281 252.757812 324.167969 253.035156 324.265625 " fill-opacity="1" fill-rule="nonzero"/><path fill="#e9e9e9" d="M 259.160156 326.425781 C 259.4375 326.523438 259.742188 326.378906 259.839844 326.101562 L 259.867188 325.941406 C 259.675781 325.738281 259.457031 325.554688 259.210938 325.398438 C 259.042969 325.441406 258.894531 325.5625 258.832031 325.742188 C 258.734375 326.023438 258.878906 326.324219 259.160156 326.425781 " fill-opacity="1" fill-rule="nonzero"/><path fill="#e9e9e9" d="M 229.164062 328.320312 L 229.195312 328.332031 C 229.46875 328.421875 229.765625 328.273438 229.863281 327.996094 C 229.960938 327.722656 229.8125 327.417969 229.53125 327.316406 C 229.257812 327.21875 228.953125 327.367188 228.855469 327.644531 C 228.757812 327.917969 228.894531 328.21875 229.164062 328.320312 " fill-opacity="1" fill-rule="nonzero"/><path fill="#e9e9e9" d="M 226.105469 327.238281 L 226.132812 327.253906 C 226.40625 327.34375 226.703125 327.191406 226.800781 326.917969 C 226.898438 326.640625 226.753906 326.335938 226.472656 326.238281 C 226.195312 326.140625 225.890625 326.289062 225.792969 326.5625 C 225.695312 326.835938 225.835938 327.136719 226.105469 327.238281 " fill-opacity="1" fill-rule="nonzero"/><path fill="#e9e9e9" d="M 249.976562 323.1875 C 250.25 323.285156 250.554688 323.136719 250.652344 322.859375 C 250.753906 322.582031 250.613281 322.28125 250.339844 322.179688 L 250.320312 322.171875 C 250.042969 322.082031 249.746094 322.230469 249.648438 322.507812 C 249.550781 322.777344 249.699219 323.089844 249.976562 323.1875 " fill-opacity="1" fill-rule="nonzero"/><path fill="#e9e9e9" d="M 241.40625 332.640625 L 241.4375 332.648438 C 241.710938 332.738281 242.007812 332.59375 242.101562 332.320312 C 242.199219 332.039062 242.058594 331.738281 241.777344 331.636719 C 241.5 331.539062 241.195312 331.683594 241.097656 331.964844 C 241 332.238281 241.140625 332.539062 241.40625 332.640625 " fill-opacity="1" fill-rule="nonzero"/><path fill="#e9e9e9" d="M 222.390625 323.355469 C 222.179688 323.285156 221.957031 323.347656 221.820312 323.5 C 221.828125 323.78125 221.875 324.0625 221.957031 324.328125 L 222.035156 324.367188 C 222.3125 324.464844 222.621094 324.320312 222.71875 324.039062 C 222.816406 323.761719 222.667969 323.453125 222.390625 323.355469 " fill-opacity="1" fill-rule="nonzero"/><path fill="#e9e9e9" d="M 223.359375 326.183594 C 223.527344 326.140625 223.675781 326.019531 223.738281 325.839844 C 223.835938 325.558594 223.691406 325.257812 223.414062 325.160156 C 223.132812 325.0625 222.828125 325.207031 222.734375 325.480469 L 222.699219 325.644531 C 222.894531 325.847656 223.117188 326.03125 223.359375 326.183594 " fill-opacity="1" fill-rule="nonzero"/><path fill="#e9e9e9" d="M 238.347656 331.558594 L 238.375 331.570312 C 238.648438 331.660156 238.949219 331.515625 239.042969 331.242188 C 239.140625 330.960938 238.996094 330.660156 238.71875 330.558594 C 238.4375 330.460938 238.132812 330.605469 238.039062 330.882812 C 237.941406 331.160156 238.078125 331.457031 238.347656 331.558594 " fill-opacity="1" fill-rule="nonzero"/><path fill="#e9e9e9" d="M 235.289062 330.480469 L 235.316406 330.492188 C 235.589844 330.582031 235.886719 330.429688 235.984375 330.160156 C 236.078125 329.882812 235.933594 329.578125 235.65625 329.480469 C 235.375 329.382812 235.070312 329.527344 234.972656 329.804688 C 234.882812 330.078125 235.019531 330.378906 235.289062 330.480469 " fill-opacity="1" fill-rule="nonzero"/><path fill="#e9e9e9" d="M 232.226562 329.402344 L 232.253906 329.410156 C 232.527344 329.5 232.824219 329.351562 232.921875 329.078125 C 233.019531 328.804688 232.875 328.496094 232.597656 328.394531 C 232.316406 328.296875 232.011719 328.445312 231.914062 328.726562 C 231.816406 329 231.953125 329.300781 232.226562 329.402344 " fill-opacity="1" fill-rule="nonzero"/><path fill="#e9e9e9" d="M 255.707031 336.242188 C 255.980469 336.339844 256.285156 336.195312 256.382812 335.917969 C 256.480469 335.636719 256.335938 335.332031 256.058594 335.234375 C 255.777344 335.136719 255.476562 335.285156 255.378906 335.5625 C 255.277344 335.839844 255.425781 336.144531 255.707031 336.242188 " fill-opacity="1" fill-rule="nonzero"/><path fill="#e9e9e9" d="M 258.46875 328.386719 C 258.746094 328.488281 259.050781 328.339844 259.148438 328.0625 C 259.246094 327.78125 259.097656 327.476562 258.824219 327.378906 C 258.542969 327.28125 258.238281 327.425781 258.140625 327.707031 C 258.042969 327.984375 258.1875 328.289062 258.46875 328.386719 " fill-opacity="1" fill-rule="nonzero"/><path fill="#e9e9e9" d="M 257.777344 330.355469 C 258.054688 330.453125 258.359375 330.300781 258.457031 330.023438 C 258.554688 329.742188 258.40625 329.441406 258.132812 329.34375 C 257.851562 329.246094 257.546875 329.390625 257.449219 329.671875 C 257.351562 329.945312 257.496094 330.257812 257.777344 330.355469 " fill-opacity="1" fill-rule="nonzero"/><path fill="#e9e9e9" d="M 257.417969 336.082031 C 257.695312 336.183594 258 336.03125 258.097656 335.757812 C 258.199219 335.472656 258.050781 335.167969 257.773438 335.070312 C 257.492188 334.972656 257.1875 335.121094 257.089844 335.402344 C 256.992188 335.679688 257.140625 335.984375 257.417969 336.082031 " fill-opacity="1" fill-rule="nonzero"/><path fill="#e9e9e9" d="M 258.113281 334.117188 C 258.386719 334.214844 258.691406 334.070312 258.789062 333.789062 C 258.886719 333.511719 258.742188 333.207031 258.464844 333.109375 C 258.183594 333.011719 257.878906 333.160156 257.78125 333.433594 C 257.683594 333.714844 257.832031 334.015625 258.113281 334.117188 " fill-opacity="1" fill-rule="nonzero"/><path fill="#e9e9e9" d="M 246.914062 322.105469 C 247.191406 322.203125 247.496094 322.054688 247.59375 321.777344 C 247.691406 321.503906 247.554688 321.199219 247.28125 321.101562 L 247.257812 321.09375 C 246.984375 321.003906 246.6875 321.148438 246.585938 321.421875 C 246.492188 321.699219 246.632812 322.007812 246.914062 322.105469 " fill-opacity="1" fill-rule="nonzero"/><path fill="#e9e9e9" d="M 257.121094 327.144531 C 257.398438 327.25 257.703125 327.101562 257.800781 326.816406 C 257.898438 326.539062 257.753906 326.234375 257.476562 326.136719 C 257.195312 326.039062 256.890625 326.1875 256.792969 326.460938 C 256.695312 326.742188 256.84375 327.046875 257.121094 327.144531 " fill-opacity="1" fill-rule="nonzero"/><path fill="#e9e9e9" d="M 258.796875 332.152344 C 259.078125 332.25 259.382812 332.109375 259.480469 331.828125 C 259.582031 331.550781 259.433594 331.242188 259.15625 331.148438 C 258.878906 331.046875 258.570312 331.191406 258.472656 331.472656 C 258.375 331.75 258.519531 332.054688 258.796875 332.152344 " fill-opacity="1" fill-rule="nonzero"/><path fill="#e9e9e9" d="M 257.082031 332.320312 C 257.363281 332.417969 257.667969 332.269531 257.765625 331.992188 C 257.863281 331.714844 257.722656 331.402344 257.441406 331.304688 C 257.160156 331.207031 256.855469 331.355469 256.757812 331.636719 C 256.660156 331.914062 256.808594 332.21875 257.082031 332.320312 " fill-opacity="1" fill-rule="nonzero"/><path fill="#e9e9e9" d="M 256.394531 334.28125 C 256.671875 334.378906 256.976562 334.234375 257.074219 333.953125 C 257.171875 333.675781 257.03125 333.371094 256.75 333.273438 C 256.46875 333.171875 256.164062 333.320312 256.066406 333.597656 C 255.96875 333.878906 256.117188 334.183594 256.394531 334.28125 " fill-opacity="1" fill-rule="nonzero"/><path fill="#e9e9e9" d="M 234.667969 317.785156 C 234.949219 317.882812 235.25 317.738281 235.351562 317.457031 C 235.445312 317.183594 235.308594 316.886719 235.035156 316.777344 L 235.015625 316.773438 C 234.738281 316.679688 234.441406 316.828125 234.34375 317.105469 C 234.246094 317.386719 234.394531 317.6875 234.667969 317.785156 " fill-opacity="1" fill-rule="nonzero"/><path fill="#e9e9e9" d="M 259.488281 330.191406 C 259.769531 330.289062 260.074219 330.140625 260.171875 329.863281 C 260.269531 329.585938 260.125 329.28125 259.847656 329.183594 C 259.566406 329.082031 259.261719 329.226562 259.164062 329.507812 C 259.066406 329.789062 259.210938 330.09375 259.488281 330.191406 " fill-opacity="1" fill-rule="nonzero"/><path fill="#e9e9e9" d="M 237.730469 318.867188 C 238.011719 318.964844 238.316406 318.816406 238.414062 318.539062 C 238.511719 318.261719 238.367188 317.964844 238.097656 317.863281 L 238.074219 317.855469 C 237.800781 317.761719 237.5 317.90625 237.40625 318.183594 C 237.304688 318.464844 237.453125 318.765625 237.730469 318.867188 " fill-opacity="1" fill-rule="nonzero"/><path fill="#e9e9e9" d="M 243.855469 321.023438 C 244.132812 321.121094 244.4375 320.980469 244.535156 320.699219 C 244.628906 320.421875 244.492188 320.121094 244.21875 320.023438 L 244.195312 320.011719 C 243.921875 319.921875 243.621094 320.066406 243.53125 320.34375 C 243.429688 320.621094 243.574219 320.925781 243.855469 321.023438 " fill-opacity="1" fill-rule="nonzero"/><path fill="#e9e9e9" d="M 240.789062 319.945312 C 241.070312 320.042969 241.375 319.898438 241.472656 319.621094 C 241.570312 319.34375 241.429688 319.042969 241.160156 318.941406 L 241.136719 318.933594 C 240.859375 318.84375 240.5625 318.988281 240.464844 319.265625 C 240.367188 319.539062 240.515625 319.847656 240.789062 319.945312 " fill-opacity="1" fill-rule="nonzero"/><path fill="#e9e9e9" d="M 226.054688 314.40625 C 225.921875 314.453125 225.796875 314.511719 225.675781 314.574219 C 225.820312 314.574219 225.957031 314.511719 226.054688 314.40625 " fill-opacity="1" fill-rule="nonzero"/><path fill="#e9e9e9" d="M 228.550781 315.628906 C 228.824219 315.726562 229.128906 315.578125 229.230469 315.300781 C 229.324219 315.023438 229.1875 314.722656 228.914062 314.621094 L 228.890625 314.613281 C 228.617188 314.523438 228.316406 314.667969 228.21875 314.941406 C 228.121094 315.222656 228.269531 315.53125 228.550781 315.628906 " fill-opacity="1" fill-rule="nonzero"/><path fill="#e9e9e9" d="M 231.609375 316.707031 C 231.886719 316.804688 232.191406 316.65625 232.289062 316.378906 C 232.386719 316.101562 232.246094 315.800781 231.976562 315.699219 L 231.953125 315.691406 C 231.679688 315.601562 231.382812 315.746094 231.285156 316.027344 C 231.1875 316.304688 231.332031 316.609375 231.609375 316.707031 " fill-opacity="1" fill-rule="nonzero"/><path fill="#e9e9e9" d="M 244.84375 327.996094 C 245.117188 328.097656 245.421875 327.949219 245.519531 327.671875 C 245.621094 327.390625 245.476562 327.085938 245.195312 326.988281 C 244.917969 326.890625 244.613281 327.035156 244.515625 327.316406 C 244.417969 327.59375 244.5625 327.898438 244.84375 327.996094 " fill-opacity="1" fill-rule="nonzero"/><path fill="#e9e9e9" d="M 244.152344 329.964844 C 244.425781 330.0625 244.734375 329.914062 244.828125 329.636719 C 244.929688 329.355469 244.785156 329.046875 244.503906 328.949219 C 244.226562 328.851562 243.921875 329.003906 243.824219 329.28125 C 243.730469 329.558594 243.871094 329.863281 244.152344 329.964844 " fill-opacity="1" fill-rule="nonzero"/><path fill="#e9e9e9" d="M 229.535156 322.601562 C 229.816406 322.699219 230.117188 322.550781 230.21875 322.269531 C 230.316406 321.992188 230.171875 321.6875 229.894531 321.589844 C 229.613281 321.488281 229.308594 321.636719 229.210938 321.914062 C 229.113281 322.195312 229.261719 322.503906 229.535156 322.601562 " fill-opacity="1" fill-rule="nonzero"/><path fill="#e9e9e9" d="M 230.917969 318.671875 C 231.199219 318.769531 231.503906 318.617188 231.601562 318.34375 C 231.699219 318.066406 231.550781 317.761719 231.277344 317.664062 C 230.996094 317.566406 230.691406 317.707031 230.59375 317.988281 C 230.496094 318.265625 230.640625 318.570312 230.917969 318.671875 " fill-opacity="1" fill-rule="nonzero"/><path fill="#e9e9e9" d="M 229.871094 326.363281 C 230.152344 326.460938 230.453125 326.316406 230.554688 326.035156 C 230.648438 325.757812 230.503906 325.453125 230.226562 325.351562 C 229.945312 325.257812 229.640625 325.402344 229.542969 325.679688 C 229.449219 325.960938 229.59375 326.265625 229.871094 326.363281 " fill-opacity="1" fill-rule="nonzero"/><path fill="#e9e9e9" d="M 229.574219 317.429688 C 229.851562 317.527344 230.15625 317.382812 230.253906 317.101562 C 230.347656 316.824219 230.207031 316.519531 229.925781 316.417969 C 229.652344 316.320312 229.347656 316.46875 229.25 316.742188 C 229.152344 317.027344 229.292969 317.332031 229.574219 317.429688 " fill-opacity="1" fill-rule="nonzero"/><path fill="#e9e9e9" d="M 228.847656 324.5625 C 229.125 324.660156 229.429688 324.511719 229.527344 324.234375 C 229.625 323.957031 229.480469 323.648438 229.203125 323.550781 C 228.921875 323.453125 228.617188 323.601562 228.519531 323.878906 C 228.421875 324.160156 228.570312 324.46875 228.847656 324.5625 " fill-opacity="1" fill-rule="nonzero"/><path fill="#e9e9e9" d="M 228.882812 319.390625 C 229.160156 319.488281 229.464844 319.34375 229.5625 319.0625 C 229.660156 318.785156 229.511719 318.480469 229.234375 318.382812 C 228.960938 318.28125 228.65625 318.425781 228.554688 318.707031 C 228.457031 318.988281 228.601562 319.292969 228.882812 319.390625 " fill-opacity="1" fill-rule="nonzero"/><path fill="#e9e9e9" d="M 228.160156 326.523438 C 228.433594 326.625 228.738281 326.476562 228.835938 326.199219 C 228.933594 325.917969 228.789062 325.617188 228.511719 325.515625 C 228.230469 325.421875 227.925781 325.5625 227.828125 325.84375 C 227.730469 326.121094 227.878906 326.425781 228.160156 326.523438 " fill-opacity="1" fill-rule="nonzero"/><path fill="#e9e9e9" d="M 230.5625 324.398438 C 230.839844 324.5 231.140625 324.355469 231.238281 324.074219 C 231.339844 323.796875 231.195312 323.488281 230.917969 323.390625 C 230.636719 323.296875 230.332031 323.4375 230.234375 323.714844 C 230.132812 323.996094 230.285156 324.300781 230.5625 324.398438 " fill-opacity="1" fill-rule="nonzero"/><path fill="#e9e9e9" d="M 231.25 322.4375 C 231.53125 322.535156 231.835938 322.386719 231.929688 322.105469 C 232.03125 321.828125 231.886719 321.523438 231.605469 321.425781 C 231.328125 321.324219 231.023438 321.472656 230.925781 321.753906 C 230.828125 322.035156 230.976562 322.339844 231.25 322.4375 " fill-opacity="1" fill-rule="nonzero"/><path fill="#e9e9e9" d="M 232.597656 323.679688 C 232.878906 323.78125 233.183594 323.628906 233.28125 323.347656 C 233.378906 323.070312 233.230469 322.765625 232.953125 322.667969 C 232.675781 322.570312 232.371094 322.71875 232.273438 322.996094 C 232.175781 323.277344 232.316406 323.582031 232.597656 323.679688 " fill-opacity="1" fill-rule="nonzero"/><path fill="#e9e9e9" d="M 233.289062 321.714844 C 233.570312 321.8125 233.875 321.664062 233.972656 321.382812 C 234.066406 321.109375 233.921875 320.804688 233.644531 320.703125 C 233.363281 320.605469 233.058594 320.75 232.960938 321.027344 C 232.867188 321.308594 233.011719 321.617188 233.289062 321.714844 " fill-opacity="1" fill-rule="nonzero"/><path fill="#e9e9e9" d="M 233.980469 319.75 C 234.257812 319.847656 234.5625 319.703125 234.660156 319.421875 C 234.757812 319.144531 234.613281 318.839844 234.332031 318.742188 C 234.054688 318.644531 233.75 318.789062 233.652344 319.066406 C 233.554688 319.34375 233.703125 319.652344 233.980469 319.75 " fill-opacity="1" fill-rule="nonzero"/><path fill="#e9e9e9" d="M 231.90625 325.640625 C 232.1875 325.742188 232.492188 325.589844 232.589844 325.316406 C 232.6875 325.039062 232.539062 324.730469 232.265625 324.632812 C 231.984375 324.535156 231.679688 324.683594 231.582031 324.957031 C 231.484375 325.238281 231.628906 325.546875 231.90625 325.640625 " fill-opacity="1" fill-rule="nonzero"/><path fill="#e9e9e9" d="M 231.941406 320.472656 C 232.222656 320.570312 232.523438 320.421875 232.621094 320.144531 C 232.722656 319.863281 232.578125 319.5625 232.300781 319.460938 C 232.019531 319.363281 231.714844 319.511719 231.617188 319.785156 C 231.515625 320.066406 231.667969 320.378906 231.941406 320.472656 " fill-opacity="1" fill-rule="nonzero"/><path fill="#e9e9e9" d="M 231.214844 327.601562 C 231.496094 327.703125 231.796875 327.558594 231.898438 327.277344 C 231.996094 327 231.847656 326.695312 231.570312 326.597656 C 231.292969 326.5 230.988281 326.644531 230.890625 326.921875 C 230.792969 327.203125 230.9375 327.507812 231.214844 327.601562 " fill-opacity="1" fill-rule="nonzero"/><path fill="#e9e9e9" d="M 232.632812 318.507812 C 232.910156 318.609375 233.214844 318.460938 233.3125 318.179688 C 233.414062 317.902344 233.269531 317.597656 232.988281 317.5 C 232.710938 317.398438 232.40625 317.546875 232.308594 317.824219 C 232.210938 318.105469 232.355469 318.410156 232.632812 318.507812 " fill-opacity="1" fill-rule="nonzero"/><path fill="#e9e9e9" d="M 224.796875 316.511719 C 225.074219 316.609375 225.382812 316.460938 225.480469 316.179688 C 225.578125 315.902344 225.429688 315.597656 225.152344 315.5 C 224.871094 315.402344 224.570312 315.550781 224.46875 315.828125 C 224.371094 316.105469 224.519531 316.414062 224.796875 316.511719 " fill-opacity="1" fill-rule="nonzero"/><path fill="#e9e9e9" d="M 224.4375 322.242188 C 224.714844 322.339844 225.023438 322.191406 225.117188 321.910156 C 225.214844 321.636719 225.074219 321.328125 224.792969 321.230469 C 224.511719 321.128906 224.207031 321.277344 224.117188 321.558594 C 224.011719 321.835938 224.160156 322.140625 224.4375 322.242188 " fill-opacity="1" fill-rule="nonzero"/><path fill="#e9e9e9" d="M 223.746094 324.203125 C 224.027344 324.300781 224.332031 324.15625 224.429688 323.878906 C 224.527344 323.597656 224.382812 323.296875 224.101562 323.195312 C 223.824219 323.097656 223.519531 323.242188 223.421875 323.519531 C 223.324219 323.800781 223.46875 324.105469 223.746094 324.203125 " fill-opacity="1" fill-rule="nonzero"/><path fill="#e9e9e9" d="M 225.128906 320.277344 C 225.40625 320.378906 225.710938 320.226562 225.808594 319.949219 C 225.90625 319.667969 225.765625 319.363281 225.484375 319.265625 C 225.207031 319.167969 224.902344 319.3125 224.800781 319.589844 C 224.703125 319.871094 224.851562 320.179688 225.128906 320.277344 " fill-opacity="1" fill-rule="nonzero"/><path fill="#e9e9e9" d="M 232.929688 327.445312 C 233.207031 327.542969 233.515625 327.394531 233.613281 327.117188 C 233.710938 326.835938 233.5625 326.53125 233.289062 326.433594 C 233.007812 326.335938 232.703125 326.480469 232.605469 326.765625 C 232.507812 327.039062 232.652344 327.347656 232.929688 327.445312 " fill-opacity="1" fill-rule="nonzero"/><path fill="#e9e9e9" d="M 223.417969 320.4375 C 223.691406 320.535156 224 320.390625 224.097656 320.113281 C 224.195312 319.832031 224.050781 319.527344 223.773438 319.429688 C 223.492188 319.332031 223.1875 319.476562 223.085938 319.757812 C 222.988281 320.035156 223.136719 320.339844 223.417969 320.4375 " fill-opacity="1" fill-rule="nonzero"/><path fill="#e9e9e9" d="M 228.191406 321.355469 C 228.46875 321.457031 228.773438 321.304688 228.875 321.027344 C 228.972656 320.746094 228.824219 320.441406 228.546875 320.34375 C 228.269531 320.246094 227.964844 320.394531 227.867188 320.675781 C 227.769531 320.953125 227.910156 321.261719 228.191406 321.355469 " fill-opacity="1" fill-rule="nonzero"/><path fill="#e9e9e9" d="M 223.082031 321.390625 C 222.800781 321.292969 222.492188 321.445312 222.394531 321.71875 C 222.296875 321.996094 222.445312 322.300781 222.726562 322.40625 C 223 322.503906 223.304688 322.355469 223.40625 322.074219 C 223.503906 321.796875 223.359375 321.488281 223.082031 321.390625 " fill-opacity="1" fill-rule="nonzero"/><path fill="#e9e9e9" d="M 225.816406 318.3125 C 226.097656 318.410156 226.402344 318.265625 226.5 317.984375 C 226.597656 317.707031 226.453125 317.402344 226.175781 317.300781 C 225.894531 317.203125 225.589844 317.347656 225.492188 317.628906 C 225.394531 317.910156 225.542969 318.214844 225.816406 318.3125 " fill-opacity="1" fill-rule="nonzero"/><path fill="#e9e9e9" d="M 224.105469 318.476562 C 224.382812 318.574219 224.691406 318.425781 224.789062 318.148438 C 224.886719 317.871094 224.738281 317.566406 224.460938 317.46875 C 224.183594 317.371094 223.875 317.511719 223.777344 317.792969 C 223.679688 318.070312 223.828125 318.378906 224.105469 318.476562 " fill-opacity="1" fill-rule="nonzero"/><path fill="#e9e9e9" d="M 226.507812 316.351562 C 226.789062 316.445312 227.09375 316.296875 227.191406 316.019531 C 227.289062 315.742188 227.148438 315.4375 226.867188 315.339844 C 226.589844 315.242188 226.28125 315.386719 226.183594 315.664062 C 226.085938 315.945312 226.234375 316.25 226.507812 316.351562 " fill-opacity="1" fill-rule="nonzero"/><path fill="#e9e9e9" d="M 227.167969 319.554688 C 227.445312 319.652344 227.753906 319.507812 227.851562 319.226562 C 227.949219 318.949219 227.796875 318.644531 227.519531 318.546875 C 227.246094 318.449219 226.941406 318.589844 226.84375 318.871094 C 226.742188 319.148438 226.886719 319.457031 227.167969 319.554688 " fill-opacity="1" fill-rule="nonzero"/><path fill="#e9e9e9" d="M 227.859375 317.59375 C 228.132812 317.6875 228.441406 317.539062 228.542969 317.261719 C 228.636719 316.988281 228.492188 316.679688 228.210938 316.578125 C 227.933594 316.480469 227.628906 316.628906 227.53125 316.910156 C 227.429688 317.1875 227.578125 317.492188 227.859375 317.59375 " fill-opacity="1" fill-rule="nonzero"/><path fill="#e9e9e9" d="M 227.5 323.320312 C 227.777344 323.417969 228.082031 323.269531 228.179688 322.992188 C 228.28125 322.714844 228.128906 322.410156 227.855469 322.3125 C 227.578125 322.214844 227.273438 322.359375 227.171875 322.636719 C 227.074219 322.917969 227.21875 323.222656 227.5 323.320312 " fill-opacity="1" fill-rule="nonzero"/><path fill="#e9e9e9" d="M 226.808594 325.285156 C 227.085938 325.378906 227.390625 325.234375 227.492188 324.957031 C 227.589844 324.675781 227.445312 324.375 227.164062 324.273438 C 226.886719 324.175781 226.582031 324.320312 226.484375 324.601562 C 226.386719 324.878906 226.53125 325.183594 226.808594 325.285156 " fill-opacity="1" fill-rule="nonzero"/><path fill="#e9e9e9" d="M 225.09375 325.445312 C 225.371094 325.542969 225.675781 325.394531 225.773438 325.121094 C 225.875 324.839844 225.730469 324.535156 225.449219 324.433594 C 225.171875 324.335938 224.867188 324.484375 224.769531 324.761719 C 224.671875 325.042969 224.816406 325.347656 225.09375 325.445312 " fill-opacity="1" fill-rule="nonzero"/><path fill="#e9e9e9" d="M 225.785156 323.484375 C 226.0625 323.582031 226.367188 323.433594 226.464844 323.15625 C 226.566406 322.875 226.417969 322.566406 226.144531 322.46875 C 225.863281 322.371094 225.554688 322.523438 225.457031 322.800781 C 225.359375 323.074219 225.503906 323.386719 225.785156 323.484375 " fill-opacity="1" fill-rule="nonzero"/><path fill="#e9e9e9" d="M 226.476562 321.519531 C 226.753906 321.617188 227.058594 321.472656 227.160156 321.191406 C 227.257812 320.914062 227.109375 320.605469 226.832031 320.507812 C 226.554688 320.410156 226.25 320.554688 226.152344 320.835938 C 226.050781 321.113281 226.195312 321.421875 226.476562 321.519531 " fill-opacity="1" fill-rule="nonzero"/><path fill="#e9e9e9" d="M 230.226562 320.632812 C 230.507812 320.730469 230.808594 320.585938 230.910156 320.304688 C 231.007812 320.027344 230.863281 319.722656 230.582031 319.625 C 230.304688 319.527344 230 319.671875 229.902344 319.949219 C 229.804688 320.230469 229.953125 320.535156 230.226562 320.632812 " fill-opacity="1" fill-rule="nonzero"/><path fill="#e9e9e9" d="M 240.398438 330.84375 C 240.675781 330.945312 240.980469 330.796875 241.078125 330.519531 C 241.179688 330.238281 241.035156 329.933594 240.753906 329.835938 C 240.476562 329.734375 240.171875 329.882812 240.074219 330.164062 C 239.976562 330.445312 240.121094 330.746094 240.398438 330.84375 " fill-opacity="1" fill-rule="nonzero"/><path fill="#e9e9e9" d="M 240.097656 321.910156 C 240.378906 322.007812 240.683594 321.859375 240.78125 321.582031 C 240.878906 321.304688 240.734375 321 240.457031 320.902344 C 240.179688 320.804688 239.871094 320.953125 239.773438 321.222656 C 239.675781 321.503906 239.824219 321.8125 240.097656 321.910156 " fill-opacity="1" fill-rule="nonzero"/><path fill="#e9e9e9" d="M 241.089844 328.878906 C 241.367188 328.980469 241.671875 328.835938 241.769531 328.554688 C 241.867188 328.273438 241.726562 327.96875 241.445312 327.871094 C 241.164062 327.773438 240.863281 327.917969 240.765625 328.199219 C 240.664062 328.476562 240.8125 328.78125 241.089844 328.878906 " fill-opacity="1" fill-rule="nonzero"/><path fill="#e9e9e9" d="M 241.125 323.710938 C 241.402344 323.8125 241.707031 323.664062 241.804688 323.386719 C 241.902344 323.105469 241.761719 322.804688 241.480469 322.703125 C 241.199219 322.605469 240.898438 322.75 240.796875 323.03125 C 240.699219 323.308594 240.847656 323.613281 241.125 323.710938 " fill-opacity="1" fill-rule="nonzero"/><path fill="#e9e9e9" d="M 239.742188 327.640625 C 240.023438 327.738281 240.328125 327.59375 240.425781 327.308594 C 240.523438 327.035156 240.378906 326.726562 240.097656 326.628906 C 239.820312 326.53125 239.515625 326.679688 239.417969 326.957031 C 239.320312 327.234375 239.464844 327.542969 239.742188 327.640625 " fill-opacity="1" fill-rule="nonzero"/><path fill="#e9e9e9" d="M 239.050781 329.605469 C 239.332031 329.703125 239.636719 329.554688 239.734375 329.273438 C 239.832031 328.996094 239.6875 328.691406 239.410156 328.59375 C 239.132812 328.496094 238.828125 328.640625 238.726562 328.921875 C 238.628906 329.199219 238.773438 329.507812 239.050781 329.605469 " fill-opacity="1" fill-rule="nonzero"/><path fill="#e9e9e9" d="M 240.433594 325.671875 C 240.714844 325.773438 241.019531 325.628906 241.117188 325.347656 C 241.214844 325.070312 241.070312 324.761719 240.789062 324.664062 C 240.515625 324.566406 240.203125 324.710938 240.109375 324.992188 C 240.011719 325.269531 240.15625 325.578125 240.433594 325.671875 " fill-opacity="1" fill-rule="nonzero"/><path fill="#e9e9e9" d="M 233.621094 325.476562 C 233.902344 325.578125 234.207031 325.433594 234.304688 325.152344 C 234.402344 324.875 234.253906 324.570312 233.980469 324.472656 C 233.699219 324.375 233.394531 324.519531 233.296875 324.792969 C 233.199219 325.078125 233.34375 325.378906 233.621094 325.476562 " fill-opacity="1" fill-rule="nonzero"/><path fill="#e9e9e9" d="M 241.8125 321.75 C 242.09375 321.847656 242.398438 321.699219 242.496094 321.417969 C 242.59375 321.140625 242.453125 320.835938 242.171875 320.738281 C 241.894531 320.640625 241.585938 320.785156 241.488281 321.066406 C 241.390625 321.347656 241.539062 321.652344 241.8125 321.75 " fill-opacity="1" fill-rule="nonzero"/><path fill="#e9e9e9" d="M 243.496094 326.753906 C 243.773438 326.851562 244.078125 326.710938 244.175781 326.429688 C 244.277344 326.148438 244.132812 325.84375 243.851562 325.742188 C 243.574219 325.648438 243.269531 325.789062 243.167969 326.070312 C 243.070312 326.347656 243.214844 326.65625 243.496094 326.753906 " fill-opacity="1" fill-rule="nonzero"/><path fill="#e9e9e9" d="M 244.875 322.828125 C 245.15625 322.925781 245.460938 322.777344 245.558594 322.496094 C 245.65625 322.222656 245.507812 321.914062 245.230469 321.816406 C 244.957031 321.71875 244.648438 321.867188 244.550781 322.144531 C 244.453125 322.425781 244.597656 322.730469 244.875 322.828125 " fill-opacity="1" fill-rule="nonzero"/><path fill="#e9e9e9" d="M 244.1875 324.792969 C 244.464844 324.890625 244.769531 324.746094 244.867188 324.464844 C 244.964844 324.183594 244.816406 323.878906 244.542969 323.78125 C 244.265625 323.683594 243.960938 323.828125 243.859375 324.109375 C 243.761719 324.386719 243.90625 324.691406 244.1875 324.792969 " fill-opacity="1" fill-rule="nonzero"/><path fill="#e9e9e9" d="M 243.460938 331.925781 C 243.738281 332.023438 244.042969 331.875 244.144531 331.597656 C 244.242188 331.320312 244.09375 331.011719 243.8125 330.914062 C 243.539062 330.816406 243.234375 330.964844 243.136719 331.246094 C 243.039062 331.523438 243.179688 331.828125 243.460938 331.925781 " fill-opacity="1" fill-rule="nonzero"/><path fill="#e9e9e9" d="M 243.160156 322.992188 C 243.441406 323.089844 243.746094 322.941406 243.847656 322.660156 C 243.941406 322.382812 243.792969 322.078125 243.515625 321.980469 C 243.238281 321.882812 242.9375 322.03125 242.839844 322.308594 C 242.738281 322.582031 242.882812 322.894531 243.160156 322.992188 " fill-opacity="1" fill-rule="nonzero"/><path fill="#e9e9e9" d="M 242.472656 324.957031 C 242.75 325.050781 243.054688 324.902344 243.15625 324.625 C 243.253906 324.347656 243.101562 324.039062 242.828125 323.941406 C 242.546875 323.84375 242.246094 323.992188 242.148438 324.269531 C 242.046875 324.550781 242.191406 324.855469 242.472656 324.957031 " fill-opacity="1" fill-rule="nonzero"/><path fill="#e9e9e9" d="M 242.113281 330.683594 C 242.390625 330.78125 242.695312 330.636719 242.792969 330.359375 C 242.894531 330.078125 242.746094 329.773438 242.46875 329.675781 C 242.191406 329.578125 241.886719 329.722656 241.785156 330 C 241.6875 330.28125 241.835938 330.585938 242.113281 330.683594 " fill-opacity="1" fill-rule="nonzero"/><path fill="#e9e9e9" d="M 242.804688 328.71875 C 243.082031 328.820312 243.386719 328.671875 243.484375 328.390625 C 243.582031 328.113281 243.441406 327.808594 243.160156 327.707031 C 242.878906 327.609375 242.578125 327.757812 242.476562 328.035156 C 242.378906 328.320312 242.527344 328.621094 242.804688 328.71875 " fill-opacity="1" fill-rule="nonzero"/><path fill="#e9e9e9" d="M 241.78125 326.917969 C 242.058594 327.019531 242.363281 326.871094 242.460938 326.589844 C 242.558594 326.3125 242.414062 326.007812 242.136719 325.910156 C 241.855469 325.8125 241.554688 325.953125 241.457031 326.234375 C 241.359375 326.515625 241.5 326.820312 241.78125 326.917969 " fill-opacity="1" fill-rule="nonzero"/><path fill="#e9e9e9" d="M 234.964844 326.722656 C 235.246094 326.820312 235.550781 326.675781 235.648438 326.394531 C 235.746094 326.117188 235.601562 325.8125 235.324219 325.710938 C 235.046875 325.613281 234.738281 325.761719 234.640625 326.039062 C 234.542969 326.316406 234.691406 326.625 234.964844 326.722656 " fill-opacity="1" fill-rule="nonzero"/><path fill="#e9e9e9" d="M 234.277344 328.683594 C 234.554688 328.78125 234.859375 328.640625 234.957031 328.359375 C 235.054688 328.078125 234.910156 327.773438 234.632812 327.675781 C 234.351562 327.578125 234.046875 327.722656 233.949219 328.003906 C 233.851562 328.28125 234 328.585938 234.277344 328.683594 " fill-opacity="1" fill-rule="nonzero"/><path fill="#e9e9e9" d="M 235.65625 324.757812 C 235.9375 324.859375 236.242188 324.710938 236.339844 324.429688 C 236.4375 324.152344 236.292969 323.84375 236.011719 323.746094 C 235.734375 323.648438 235.429688 323.796875 235.332031 324.078125 C 235.234375 324.355469 235.382812 324.660156 235.65625 324.757812 " fill-opacity="1" fill-rule="nonzero"/><path fill="#e9e9e9" d="M 237.039062 320.828125 C 237.320312 320.925781 237.625 320.78125 237.722656 320.503906 C 237.820312 320.222656 237.671875 319.917969 237.394531 319.820312 C 237.117188 319.722656 236.8125 319.867188 236.714844 320.144531 C 236.617188 320.425781 236.761719 320.730469 237.039062 320.828125 " fill-opacity="1" fill-rule="nonzero"/><path fill="#e9e9e9" d="M 236.347656 322.796875 C 236.628906 322.894531 236.933594 322.742188 237.03125 322.464844 C 237.128906 322.1875 236.980469 321.882812 236.703125 321.785156 C 236.425781 321.6875 236.121094 321.832031 236.023438 322.105469 C 235.925781 322.386719 236.070312 322.699219 236.347656 322.796875 " fill-opacity="1" fill-rule="nonzero"/><path fill="#e9e9e9" d="M 235.695312 319.585938 C 235.96875 319.6875 236.277344 319.539062 236.375 319.257812 C 236.472656 318.980469 236.328125 318.675781 236.050781 318.578125 C 235.769531 318.480469 235.464844 318.628906 235.367188 318.902344 C 235.269531 319.183594 235.414062 319.488281 235.695312 319.585938 " fill-opacity="1" fill-rule="nonzero"/><path fill="#e9e9e9" d="M 234.3125 323.515625 C 234.589844 323.613281 234.898438 323.464844 234.996094 323.191406 C 235.09375 322.910156 234.945312 322.605469 234.667969 322.507812 C 234.390625 322.40625 234.085938 322.554688 233.988281 322.835938 C 233.890625 323.113281 234.035156 323.417969 234.3125 323.515625 " fill-opacity="1" fill-rule="nonzero"/><path fill="#e9e9e9" d="M 235.003906 321.554688 C 235.28125 321.652344 235.589844 321.503906 235.6875 321.222656 C 235.785156 320.941406 235.636719 320.640625 235.359375 320.542969 C 235.082031 320.441406 234.777344 320.589844 234.679688 320.871094 C 234.582031 321.148438 234.726562 321.457031 235.003906 321.554688 " fill-opacity="1" fill-rule="nonzero"/><path fill="#e9e9e9" d="M 238.71875 325.839844 C 238.996094 325.9375 239.304688 325.789062 239.398438 325.511719 C 239.5 325.234375 239.351562 324.925781 239.074219 324.828125 C 238.800781 324.734375 238.488281 324.875 238.390625 325.15625 C 238.292969 325.433594 238.441406 325.742188 238.71875 325.839844 " fill-opacity="1" fill-rule="nonzero"/><path fill="#e9e9e9" d="M 237.335938 329.765625 C 237.617188 329.863281 237.921875 329.71875 238.019531 329.4375 C 238.121094 329.160156 237.96875 328.855469 237.695312 328.757812 C 237.417969 328.65625 237.113281 328.804688 237.011719 329.082031 C 236.914062 329.359375 237.058594 329.667969 237.335938 329.765625 " fill-opacity="1" fill-rule="nonzero"/><path fill="#e9e9e9" d="M 238.03125 327.800781 C 238.308594 327.898438 238.613281 327.753906 238.710938 327.472656 C 238.808594 327.195312 238.660156 326.890625 238.382812 326.792969 C 238.109375 326.695312 237.800781 326.839844 237.703125 327.117188 C 237.605469 327.398438 237.75 327.703125 238.03125 327.800781 " fill-opacity="1" fill-rule="nonzero"/><path fill="#e9e9e9" d="M 239.410156 323.875 C 239.6875 323.976562 239.992188 323.824219 240.089844 323.542969 C 240.1875 323.265625 240.042969 322.960938 239.765625 322.863281 C 239.488281 322.765625 239.179688 322.910156 239.082031 323.191406 C 238.984375 323.472656 239.132812 323.78125 239.410156 323.875 " fill-opacity="1" fill-rule="nonzero"/><path fill="#e9e9e9" d="M 238.753906 320.671875 C 239.035156 320.769531 239.339844 320.617188 239.4375 320.339844 C 239.535156 320.058594 239.386719 319.757812 239.113281 319.65625 C 238.832031 319.558594 238.527344 319.707031 238.429688 319.984375 C 238.332031 320.261719 238.472656 320.570312 238.753906 320.671875 " fill-opacity="1" fill-rule="nonzero"/><path fill="#e9e9e9" d="M 238.066406 322.632812 C 238.34375 322.730469 238.648438 322.582031 238.746094 322.300781 C 238.84375 322.027344 238.695312 321.71875 238.421875 321.621094 C 238.140625 321.519531 237.835938 321.671875 237.738281 321.949219 C 237.640625 322.230469 237.78125 322.535156 238.066406 322.632812 " fill-opacity="1" fill-rule="nonzero"/><path fill="#e9e9e9" d="M 236.683594 326.554688 C 236.960938 326.65625 237.265625 326.511719 237.363281 326.230469 C 237.460938 325.953125 237.316406 325.648438 237.039062 325.550781 C 236.757812 325.453125 236.453125 325.601562 236.355469 325.875 C 236.257812 326.15625 236.40625 326.460938 236.683594 326.554688 " fill-opacity="1" fill-rule="nonzero"/><path fill="#e9e9e9" d="M 235.992188 328.523438 C 236.269531 328.625 236.574219 328.472656 236.671875 328.195312 C 236.769531 327.914062 236.625 327.609375 236.347656 327.511719 C 236.066406 327.414062 235.761719 327.5625 235.664062 327.84375 C 235.566406 328.121094 235.714844 328.425781 235.992188 328.523438 " fill-opacity="1" fill-rule="nonzero"/><path fill="#e9e9e9" d="M 237.371094 324.59375 C 237.652344 324.691406 237.953125 324.550781 238.054688 324.269531 C 238.152344 323.988281 238.007812 323.6875 237.730469 323.585938 C 237.449219 323.488281 237.144531 323.632812 237.046875 323.914062 C 236.949219 324.191406 237.097656 324.496094 237.371094 324.59375 " fill-opacity="1" fill-rule="nonzero"/><path fill="#e9e9e9" d="M 235.179688 316.832031 L 251.652344 322.644531 L 247.394531 334.75 L 230.917969 328.941406 L 235.179688 316.832031 " fill-opacity="1" fill-rule="nonzero"/><path fill="#f1dcca" d="M 240.417969 303.070312 L 239.3125 291.503906 L 240.867188 291.359375 C 240.675781 291.835938 240.589844 292.363281 240.640625 292.910156 C 240.949219 296.421875 241.101562 299.789062 241.105469 303.003906 L 240.417969 303.070312 M 247.910156 302.351562 C 247.886719 299.132812 247.726562 295.789062 247.421875 292.316406 C 247.375 291.75 247.191406 291.230469 246.910156 290.78125 L 248.695312 290.609375 L 249.796875 302.175781 L 247.910156 302.351562 " fill-opacity="1" fill-rule="nonzero"/><path fill="#db8b75" d="M 242.804688 302.84375 C 242.796875 299.625 242.644531 296.265625 242.335938 292.757812 C 242.277344 292.078125 242.625 291.460938 243.175781 291.140625 L 244.589844 291 C 245.203125 291.214844 245.667969 291.773438 245.726562 292.460938 C 246.03125 295.945312 246.191406 299.296875 246.207031 302.515625 L 242.804688 302.84375 " fill-opacity="1" fill-rule="nonzero"/><path fill="#dbdfdf" d="M 241.105469 303.003906 C 241.101562 299.789062 240.949219 296.421875 240.640625 292.910156 C 240.589844 292.363281 240.675781 291.835938 240.867188 291.359375 L 243.175781 291.140625 C 242.625 291.460938 242.277344 292.078125 242.335938 292.757812 C 242.644531 296.265625 242.796875 299.625 242.804688 302.84375 L 241.105469 303.003906 M 246.207031 302.515625 C 246.191406 299.296875 246.03125 295.945312 245.726562 292.460938 C 245.667969 291.773438 245.203125 291.214844 244.589844 291 L 246.910156 290.78125 C 247.191406 291.230469 247.375 291.75 247.421875 292.316406 C 247.726562 295.789062 247.886719 299.132812 247.910156 302.351562 L 246.207031 302.515625 " fill-opacity="1" fill-rule="nonzero"/><path fill="#f1dcca" d="M 239.644531 304.945312 L 239.476562 303.160156 L 240.417969 303.070312 L 241.105469 303.003906 C 241.105469 303.609375 241.101562 304.214844 241.089844 304.808594 L 239.644531 304.945312 M 247.90625 304.160156 C 247.914062 303.5625 247.914062 302.960938 247.910156 302.351562 L 249.796875 302.175781 L 250.734375 302.085938 L 250.90625 303.871094 L 247.90625 304.160156 " fill-opacity="1" fill-rule="nonzero"/><path fill="#db8b75" d="M 242.792969 304.644531 C 242.804688 304.050781 242.804688 303.449219 242.804688 302.84375 L 246.207031 302.515625 C 246.210938 303.121094 246.207031 303.726562 246.203125 304.324219 L 242.792969 304.644531 " fill-opacity="1" fill-rule="nonzero"/><path fill="#dbdfdf" d="M 241.089844 304.808594 C 241.101562 304.214844 241.105469 303.609375 241.105469 303.003906 L 242.804688 302.84375 C 242.804688 303.449219 242.804688 304.050781 242.792969 304.644531 L 241.089844 304.808594 M 246.203125 304.324219 C 246.207031 303.726562 246.210938 303.121094 246.207031 302.515625 L 247.910156 302.351562 C 247.914062 302.960938 247.914062 303.5625 247.90625 304.160156 L 246.203125 304.324219 " fill-opacity="1" fill-rule="nonzero"/><path fill="#ede3dc" d="M 240.417969 303.070312 L 241.105469 303.003906 L 240.417969 303.070312 M 247.910156 302.351562 L 249.796875 302.175781 L 247.910156 302.351562 " fill-opacity="1" fill-rule="nonzero"/><path fill="#e4bfb2" d="M 242.804688 302.84375 L 246.207031 302.515625 L 242.804688 302.84375 " fill-opacity="1" fill-rule="nonzero"/><path fill="#e4e5e5" d="M 241.105469 303.003906 L 242.804688 302.84375 L 241.105469 303.003906 M 246.207031 302.515625 L 247.910156 302.351562 L 246.207031 302.515625 " fill-opacity="1" fill-rule="nonzero"/><path fill="#e9e9e9" d="M 246.023438 286.917969 L 241.234375 287.378906 L 241.605469 291.285156 L 246.398438 290.828125 L 246.023438 286.917969 " fill-opacity="1" fill-rule="nonzero"/><path fill="#e9e9e9" d="M 246.503906 286.875 L 240.753906 287.421875 L 240.695312 286.820312 L 246.449219 286.269531 L 246.503906 286.875 " fill-opacity="1" fill-rule="nonzero"/><path fill="#e9e9e9" d="M 241.582031 270.15625 L 242.429688 270.070312 L 243.992188 286.503906 L 243.152344 286.585938 L 241.582031 270.15625 " fill-opacity="1" fill-rule="nonzero"/></svg>