<svg xmlns="http://www.w3.org/2000/svg" xmlns:xlink="http://www.w3.org/1999/xlink" width="793" zoomAndPan="magnify" viewBox="0 0 594.95996 842.24997" height="1122" preserveAspectRatio="xMidYMid meet" version="1.0"><path fill="#b2000d" d="M 405.714844 381.292969 C 395.585938 353.136719 374.71875 328.863281 345.542969 315.113281 C 316.414062 301.410156 284.484375 300.800781 256.378906 310.949219 C 228.324219 321.097656 204.097656 342.003906 190.371094 371.238281 C 184.441406 383.910156 180.847656 397.378906 179.679688 410.992188 C 178.515625 424.601562 179.773438 438.445312 183.507812 451.960938 C 178.980469 376.148438 254.980469 300.472656 334.667969 338.449219 C 357.398438 349.160156 373.644531 368.054688 381.535156 389.992188 C 389.425781 411.972656 389.003906 436.949219 378.265625 459.722656 C 368.089844 481.425781 350.492188 497.1875 329.953125 505.464844 C 329.90625 505.371094 329.859375 505.324219 329.8125 505.230469 C 324.394531 496.109375 316.039062 487.972656 305.441406 481.050781 C 287.238281 469.265625 283.082031 470.714844 273.511719 456.078125 C 266.976562 446.113281 255.773438 466.554688 272.90625 480.863281 C 279.859375 486.664062 288.125 492.558594 286.769531 497.792969 C 284.949219 505.089844 270.898438 504.949219 265.203125 504.15625 C 239.292969 500.414062 229.492188 495.597656 216.746094 486.992188 C 204.1875 478.574219 197.234375 470.480469 192.097656 471.511719 C 183.554688 473.148438 191.117188 480.675781 192.472656 482.40625 C 196.441406 487.457031 203.207031 494.660156 211.566406 501.582031 C 216 506.261719 220.761719 510.515625 225.757812 514.304688 C 232.105469 519.074219 239.015625 523.238281 246.390625 526.746094 C 268.5625 537.175781 292.324219 540.027344 314.824219 536.285156 C 327.148438 535.398438 340.59375 531.234375 355.53125 521.460938 C 374.953125 509.90625 391.292969 492.648438 401.609375 470.621094 C 415.285156 441.390625 415.847656 409.398438 405.714844 381.292969 Z M 405.714844 381.292969 " fill-opacity="1" fill-rule="nonzero"/><path fill="#b2000d" d="M 225.429688 473.195312 C 223.609375 475.113281 228.699219 484.136719 233.738281 492.835938 C 237.941406 494.519531 242.609375 495.972656 248.304688 497.1875 C 245.96875 493.773438 243.867188 490.40625 242.328125 487.226562 C 235 472.117188 227.949219 470.527344 225.429688 473.195312 Z M 225.429688 473.195312 " fill-opacity="1" fill-rule="nonzero"/><path fill="#b2000d" d="M 242.933594 480.535156 C 241.347656 482.21875 245.597656 489.9375 249.984375 497.5625 C 253.53125 498.308594 257.40625 498.964844 261.839844 499.570312 C 260.441406 497.421875 259.226562 495.269531 258.246094 493.257812 C 251.617188 479.554688 245.269531 478.152344 242.933594 480.535156 Z M 242.933594 480.535156 " fill-opacity="1" fill-rule="nonzero"/><path fill="#b2000d" d="M 206.289062 466.460938 C 204.890625 468.003906 207.921875 473.847656 211.890625 480.445312 C 213.527344 481.613281 215.300781 482.78125 217.167969 483.996094 C 222.070312 487.179688 226.550781 489.796875 231.636719 491.996094 C 228.511719 487.925781 225.617188 483.765625 223.609375 479.929688 C 215.8125 465.054688 208.765625 463.699219 206.289062 466.460938 Z M 206.289062 466.460938 " fill-opacity="1" fill-rule="nonzero"/><path fill="#e40011" d="M 291.066406 453.410156 C 291.160156 453.410156 291.296875 453.410156 291.390625 453.410156 C 291.484375 453.410156 291.625 453.410156 291.71875 453.410156 C 312.398438 453.269531 327.664062 436.667969 327.664062 416.089844 C 327.664062 390.878906 307.683594 385.96875 292.558594 345.980469 C 292.183594 344.953125 290.597656 344.953125 290.179688 345.980469 C 275.097656 385.921875 255.074219 390.878906 255.074219 416.089844 C 255.121094 436.667969 270.382812 453.269531 291.066406 453.410156 Z M 261.046875 414.5 C 261.09375 412.953125 261.28125 411.457031 261.515625 410.054688 C 261.796875 408.371094 263.429688 407.25 265.109375 407.53125 C 266.789062 407.808594 267.910156 409.445312 267.628906 411.132812 C 267.445312 412.300781 267.304688 413.46875 267.257812 414.730469 C 267.210938 416.414062 265.808594 417.726562 264.175781 417.726562 C 264.128906 417.726562 264.082031 417.726562 264.035156 417.726562 C 262.308594 417.679688 261 416.230469 261.046875 414.5 Z M 264.269531 420.484375 C 265.949219 420.0625 267.628906 421.09375 268.050781 422.777344 C 269.125 427.078125 271.226562 430.960938 274.121094 434.046875 C 278.507812 438.679688 284.53125 441.203125 291.160156 441.296875 C 291.203125 441.296875 291.203125 441.296875 291.25 441.296875 C 291.296875 441.296875 291.34375 441.296875 291.390625 441.296875 L 291.4375 441.296875 C 293.164062 441.296875 294.566406 442.699219 294.566406 444.429688 C 294.566406 446.160156 293.164062 447.5625 291.4375 447.5625 L 291.390625 447.5625 C 291.34375 447.5625 291.296875 447.5625 291.296875 447.5625 C 291.25 447.5625 291.203125 447.5625 291.160156 447.5625 C 291.160156 447.5625 291.160156 447.5625 291.113281 447.5625 C 282.800781 447.519531 275.191406 444.242188 269.636719 438.398438 C 265.949219 434.515625 263.335938 429.652344 262.027344 424.320312 C 261.609375 422.589844 262.589844 420.90625 264.269531 420.484375 Z M 264.269531 420.484375 " fill-opacity="1" fill-rule="nonzero"/><path fill="#ffffff" d="M 291.113281 447.472656 C 291.113281 447.472656 291.113281 447.519531 291.113281 447.472656 C 291.160156 447.472656 291.203125 447.472656 291.25 447.472656 C 291.296875 447.472656 291.34375 447.472656 291.34375 447.472656 L 291.390625 447.472656 C 293.117188 447.472656 294.519531 446.066406 294.519531 444.335938 C 294.519531 442.605469 293.117188 441.203125 291.390625 441.203125 L 291.34375 441.203125 C 291.296875 441.203125 291.25 441.203125 291.203125 441.203125 C 291.160156 441.203125 291.160156 441.203125 291.113281 441.203125 C 284.53125 441.15625 278.460938 438.585938 274.074219 433.953125 C 271.132812 430.867188 269.03125 426.984375 268.003906 422.683594 C 267.582031 421 265.902344 419.96875 264.222656 420.390625 C 262.542969 420.8125 261.515625 422.496094 261.933594 424.179688 C 263.242188 429.511719 265.902344 434.375 269.542969 438.257812 C 275.144531 444.148438 282.800781 447.425781 291.113281 447.472656 Z M 291.113281 447.472656 " fill-opacity="1" fill-rule="nonzero"/><path fill="#ffffff" d="M 264.175781 417.726562 C 265.855469 417.726562 267.210938 416.414062 267.257812 414.730469 C 267.304688 413.46875 267.445312 412.300781 267.628906 411.132812 C 267.910156 409.445312 266.789062 407.808594 265.109375 407.53125 C 263.429688 407.25 261.796875 408.371094 261.515625 410.054688 C 261.28125 411.457031 261.09375 412.953125 261.046875 414.5 C 260.953125 416.230469 262.308594 417.679688 264.035156 417.726562 C 264.082031 417.726562 264.128906 417.726562 264.175781 417.726562 Z M 264.175781 417.726562 " fill-opacity="1" fill-rule="nonzero"/></svg>