<svg xmlns="http://www.w3.org/2000/svg" xmlns:xlink="http://www.w3.org/1999/xlink" width="793" zoomAndPan="magnify" viewBox="0 0 594.95996 842.24997" height="1122" preserveAspectRatio="xMidYMid meet" version="1.0"><defs><clipPath id="2e78bf60d1"><path d="M 264 520 L 272 520 L 272 538.691406 L 264 538.691406 Z M 264 520 " clip-rule="nonzero"/></clipPath><clipPath id="f645530ce7"><path d="M 248 329 L 415.847656 329 L 415.847656 538.691406 L 248 538.691406 Z M 248 329 " clip-rule="nonzero"/></clipPath><clipPath id="55ce90cbf9"><path d="M 178.515625 301.359375 L 316 301.359375 L 316 538.691406 L 178.515625 538.691406 Z M 178.515625 301.359375 " clip-rule="nonzero"/></clipPath></defs><path fill="#fecaa8" d="M 267.976562 535.121094 L 267.976562 492.753906 C 267.976562 487.515625 269.644531 482.417969 272.707031 478.152344 L 285.082031 461.09375 C 288.140625 456.832031 289.808594 451.730469 289.808594 446.492188 L 289.808594 382.757812 L 219.121094 382.757812 L 219.121094 535.121094 Z M 267.976562 535.121094 " fill-opacity="1" fill-rule="nonzero"/><path fill="#fecaa8" d="M 278.035156 359.671875 C 271.546875 359.671875 266.261719 364.957031 266.261719 371.445312 L 266.261719 358.929688 C 266.261719 352.441406 260.976562 347.15625 254.488281 347.15625 C 248 347.15625 242.714844 352.441406 242.714844 358.929688 L 242.714844 344.515625 C 242.714844 338.027344 237.429688 332.742188 230.941406 332.742188 C 224.449219 332.742188 219.121094 337.980469 219.121094 344.515625 L 219.121094 358.515625 C 219.121094 352.023438 213.835938 346.738281 207.347656 346.738281 C 200.855469 346.738281 195.527344 352.023438 195.527344 358.515625 L 195.527344 445.84375 L 219.121094 445.84375 L 219.121094 427.441406 L 236.457031 427.441406 C 255.785156 427.441406 274.558594 433.839844 289.808594 445.660156 L 289.808594 371.445312 C 289.808594 364.957031 284.527344 359.671875 278.035156 359.671875 Z M 278.035156 359.671875 " fill-opacity="1" fill-rule="nonzero"/><path fill="#ffdfc7" d="M 206.882812 423.132812 L 206.882812 400.234375 C 206.882812 393.371094 201.320312 387.808594 194.460938 387.808594 C 187.597656 387.808594 181.992188 393.371094 181.992188 400.234375 L 181.992188 446.492188 C 181.992188 451.730469 183.660156 456.832031 186.71875 461.09375 L 199.09375 478.152344 C 202.15625 482.417969 203.824219 487.515625 203.824219 492.753906 L 203.824219 535.121094 L 231.773438 535.121094 L 231.773438 448.023438 C 231.773438 434.304688 220.601562 423.132812 206.882812 423.132812 Z M 206.882812 423.132812 " fill-opacity="1" fill-rule="nonzero"/><path fill="#fecaa8" d="M 326.382812 535.121094 L 326.382812 492.753906 C 326.382812 487.515625 324.714844 482.417969 321.65625 478.152344 L 309.277344 461.09375 C 306.21875 456.832031 304.550781 451.730469 304.550781 446.492188 L 304.550781 382.757812 L 375.285156 382.757812 L 375.285156 535.121094 Z M 326.382812 535.121094 " fill-opacity="1" fill-rule="nonzero"/><path fill="#fecaa8" d="M 316.324219 359.671875 C 322.8125 359.671875 328.097656 364.957031 328.097656 371.445312 L 328.097656 358.929688 C 328.097656 352.441406 333.382812 347.15625 339.871094 347.15625 C 346.363281 347.15625 351.644531 352.441406 351.644531 358.929688 L 351.644531 344.515625 C 351.644531 338.027344 356.929688 332.742188 363.421875 332.742188 C 369.910156 332.742188 375.195312 338.027344 375.195312 344.515625 L 375.195312 358.515625 C 375.195312 352.023438 380.476562 346.738281 386.96875 346.738281 C 393.457031 346.738281 398.742188 352.023438 398.742188 358.515625 L 398.742188 445.84375 L 375.148438 445.84375 L 375.148438 427.441406 L 357.902344 427.441406 C 338.574219 427.441406 319.800781 433.839844 304.550781 445.660156 L 304.550781 371.445312 C 304.550781 364.957031 309.835938 359.671875 316.324219 359.671875 Z M 316.324219 359.671875 " fill-opacity="1" fill-rule="nonzero"/><path fill="#ffdfc7" d="M 387.476562 423.132812 L 387.476562 400.234375 C 387.476562 393.371094 393.039062 387.808594 399.902344 387.808594 C 406.761719 387.808594 412.324219 393.371094 412.324219 400.234375 L 412.324219 446.492188 C 412.324219 451.730469 410.65625 456.832031 407.59375 461.09375 L 395.21875 478.152344 C 392.160156 482.417969 390.492188 487.515625 390.492188 492.753906 L 390.492188 535.121094 L 362.539062 535.121094 L 362.539062 448.023438 C 362.585938 434.304688 373.757812 423.132812 387.476562 423.132812 Z M 387.476562 423.132812 " fill-opacity="1" fill-rule="nonzero"/><path fill="#ff5555" d="M 355.03125 409.363281 C 355.03125 441.300781 329.117188 467.214844 297.179688 467.214844 C 265.242188 467.214844 239.332031 441.300781 239.332031 409.363281 C 239.332031 384.285156 274.976562 330.5625 290.273438 308.589844 C 293.609375 303.816406 300.703125 303.816406 304.039062 308.589844 C 319.382812 330.515625 355.03125 384.285156 355.03125 409.363281 Z M 355.03125 409.363281 " fill-opacity="1" fill-rule="nonzero"/><path fill="#f72b2b" d="M 355.03125 409.363281 C 355.03125 441.300781 329.117188 467.214844 297.179688 467.214844 C 291.894531 467.214844 286.796875 466.519531 281.929688 465.175781 C 306.496094 458.5 324.527344 436.019531 324.527344 409.363281 C 324.527344 388.179688 299.082031 346.507812 281.929688 320.875 C 285.082031 316.191406 287.910156 312.019531 290.320312 308.589844 C 293.65625 303.816406 300.75 303.816406 304.085938 308.589844 C 319.382812 330.515625 355.03125 384.285156 355.03125 409.363281 Z M 355.03125 409.363281 " fill-opacity="1" fill-rule="nonzero"/><g clip-path="url(#2e78bf60d1)"><path fill="#000000" d="M 267.976562 520.058594 C 266.078125 520.058594 264.5 521.632812 264.5 523.535156 L 264.5 535.121094 C 264.5 537.023438 266.078125 538.597656 267.976562 538.597656 C 269.878906 538.597656 271.453125 537.023438 271.453125 535.121094 L 271.453125 523.535156 C 271.453125 521.632812 269.925781 520.058594 267.976562 520.058594 Z M 267.976562 520.058594 " fill-opacity="1" fill-rule="nonzero"/></g><g clip-path="url(#f645530ce7)"><path fill="#000000" d="M 402.3125 384.472656 L 402.3125 358.515625 C 402.3125 350.078125 395.449219 343.261719 387.0625 343.261719 C 384 343.261719 381.128906 344.191406 378.761719 345.71875 L 378.761719 344.515625 C 378.761719 336.078125 371.902344 329.265625 363.511719 329.265625 C 355.121094 329.265625 348.261719 336.125 348.261719 344.515625 L 348.261719 346.136719 C 345.851562 344.5625 343.023438 343.679688 339.964844 343.679688 C 337.277344 343.679688 334.679688 344.375 332.363281 345.71875 C 329.765625 341.410156 327.03125 336.914062 324.066406 332.277344 C 323.046875 330.65625 320.867188 330.191406 319.246094 331.210938 C 317.621094 332.230469 317.160156 334.410156 318.179688 335.984375 C 345.804688 379.464844 351.601562 399.910156 351.601562 409.363281 C 351.601562 439.355469 327.21875 463.738281 297.226562 463.738281 C 280.585938 463.738281 265.101562 456.273438 254.71875 443.25 C 253.515625 441.765625 251.335938 441.488281 249.851562 442.691406 C 248.371094 443.898438 248.089844 446.078125 249.296875 447.558594 C 256.527344 456.597656 265.9375 463.273438 276.507812 467.074219 L 269.96875 476.113281 C 266.449219 480.980469 264.59375 486.730469 264.59375 492.753906 L 264.59375 507.171875 C 264.59375 509.070312 266.167969 510.648438 268.070312 510.648438 C 269.96875 510.648438 271.546875 509.070312 271.546875 507.171875 L 271.546875 492.753906 C 271.546875 488.210938 272.9375 483.855469 275.625 480.195312 L 283.644531 469.160156 C 288.046875 470.179688 292.636719 470.691406 297.273438 470.691406 C 301.953125 470.691406 306.496094 470.179688 310.902344 469.160156 L 318.921875 480.238281 C 321.609375 483.902344 323 488.257812 323 492.800781 L 323 535.121094 C 323 537.023438 324.574219 538.597656 326.476562 538.597656 C 328.375 538.597656 329.953125 537.023438 329.953125 535.121094 L 329.953125 492.753906 C 329.953125 486.730469 328.097656 480.980469 324.574219 476.113281 L 318.039062 467.074219 C 341.679688 458.546875 358.644531 435.925781 358.644531 409.363281 C 358.644531 404.636719 357.535156 398.886719 355.261719 392.074219 C 355.261719 391.933594 355.308594 391.796875 355.308594 391.609375 L 355.308594 344.515625 C 355.308594 339.925781 359.015625 336.21875 363.605469 336.21875 C 368.195312 336.21875 371.902344 339.925781 371.902344 344.515625 L 371.902344 402.132812 C 371.902344 404.035156 373.480469 405.609375 375.378906 405.609375 C 377.28125 405.609375 378.855469 404.035156 378.855469 402.132812 L 378.855469 358.558594 C 378.855469 353.972656 382.5625 350.261719 387.152344 350.261719 C 391.742188 350.261719 395.449219 353.972656 395.449219 358.558594 L 395.449219 385.027344 C 388.914062 386.976562 384.09375 393.09375 384.09375 400.277344 L 384.09375 419.933594 C 370.09375 421.648438 359.203125 433.609375 359.203125 448.070312 L 359.203125 474.261719 C 359.203125 476.160156 360.777344 477.738281 362.679688 477.738281 C 364.578125 477.738281 366.15625 476.160156 366.15625 474.261719 L 366.15625 448.070312 C 366.15625 436.25 375.75 426.65625 387.570312 426.65625 C 389.472656 426.65625 391.046875 425.078125 391.046875 423.179688 L 391.046875 400.234375 C 391.046875 395.273438 395.078125 391.285156 399.992188 391.285156 C 404.90625 391.285156 408.894531 395.273438 408.894531 400.234375 L 408.894531 446.492188 C 408.894531 451.035156 407.503906 455.394531 404.8125 459.054688 L 392.4375 476.113281 C 388.914062 480.980469 387.0625 486.730469 387.0625 492.753906 L 387.0625 535.121094 C 387.0625 537.023438 388.636719 538.597656 390.539062 538.597656 C 392.4375 538.597656 394.015625 537.023438 394.015625 535.121094 L 394.015625 492.753906 C 394.015625 488.210938 395.40625 483.855469 398.09375 480.195312 L 410.46875 463.136719 C 413.992188 458.269531 415.847656 452.519531 415.847656 446.492188 L 415.847656 400.234375 C 415.847656 392.261719 409.960938 385.632812 402.3125 384.472656 Z M 335.839844 351.699219 C 337.042969 351.003906 338.433594 350.632812 339.917969 350.632812 C 344.507812 350.632812 348.214844 354.34375 348.214844 358.929688 L 348.214844 375.109375 C 344.878906 368.015625 340.753906 360.230469 335.839844 351.699219 Z M 335.839844 351.699219 " fill-opacity="1" fill-rule="nonzero"/></g><g clip-path="url(#55ce90cbf9)"><path fill="#000000" d="M 242.808594 409.363281 C 242.808594 399.257812 249.480469 382.015625 262.089844 359.488281 C 272.566406 340.808594 284.757812 322.589844 293.148438 310.539062 C 294.074219 309.195312 295.558594 308.453125 297.179688 308.453125 C 298.800781 308.453125 300.285156 309.238281 301.214844 310.539062 C 303.949219 314.429688 306.683594 318.464844 309.371094 322.449219 C 310.4375 324.027344 312.617188 324.492188 314.191406 323.425781 C 315.769531 322.359375 316.230469 320.179688 315.164062 318.601562 C 312.429688 314.570312 309.695312 310.492188 306.960938 306.550781 C 304.734375 303.351562 301.121094 301.453125 297.226562 301.453125 C 293.332031 301.453125 289.71875 303.351562 287.492188 306.550781 C 280.585938 316.472656 271.128906 330.5625 262.089844 345.675781 C 259.820312 344.375 257.222656 343.632812 254.488281 343.632812 C 251.429688 343.632812 248.554688 344.5625 246.191406 346.089844 L 246.191406 344.46875 C 246.191406 336.03125 239.332031 329.21875 230.941406 329.21875 C 222.550781 329.21875 215.644531 336.078125 215.644531 344.515625 L 215.644531 345.71875 C 213.234375 344.144531 210.40625 343.261719 207.347656 343.261719 C 198.910156 343.261719 192.09375 350.125 192.09375 358.515625 L 192.09375 384.472656 C 184.402344 385.632812 178.515625 392.261719 178.515625 400.234375 L 178.515625 446.492188 C 178.515625 452.519531 180.367188 458.269531 183.890625 463.136719 L 196.265625 480.195312 C 198.910156 483.855469 200.347656 488.210938 200.347656 492.753906 L 200.347656 535.121094 C 200.347656 537.023438 201.921875 538.597656 203.824219 538.597656 C 205.722656 538.597656 207.300781 537.023438 207.300781 535.121094 L 207.300781 492.753906 C 207.300781 486.730469 205.445312 480.980469 201.921875 476.113281 L 189.546875 459.054688 C 186.859375 455.394531 185.46875 451.035156 185.46875 446.492188 L 185.46875 400.234375 C 185.46875 395.273438 189.5 391.285156 194.414062 391.285156 C 199.375 391.285156 203.359375 395.320312 203.359375 400.234375 L 203.359375 423.132812 C 203.359375 425.03125 204.9375 426.609375 206.835938 426.609375 C 218.65625 426.609375 228.25 436.203125 228.25 448.023438 L 228.25 474.214844 C 228.25 476.113281 229.828125 477.691406 231.726562 477.691406 C 233.628906 477.691406 235.203125 476.113281 235.203125 474.214844 L 235.203125 448.023438 C 235.203125 433.5625 224.3125 421.601562 210.3125 419.886719 L 210.3125 400.234375 C 210.3125 393.046875 205.539062 386.976562 198.957031 384.980469 L 198.957031 358.515625 C 198.957031 353.925781 202.664062 350.214844 207.253906 350.214844 C 211.84375 350.214844 215.550781 353.925781 215.550781 358.515625 L 215.550781 402.085938 C 215.550781 403.988281 217.125 405.5625 219.027344 405.5625 C 220.929688 405.5625 222.503906 403.988281 222.503906 402.085938 L 222.503906 344.515625 C 222.503906 339.925781 226.210938 336.21875 230.800781 336.21875 C 235.390625 336.21875 239.097656 339.925781 239.097656 344.515625 L 239.097656 391.609375 C 239.097656 391.796875 239.097656 391.933594 239.144531 392.121094 C 236.875 398.933594 235.761719 404.683594 235.761719 409.363281 C 235.761719 417.429688 237.289062 425.265625 240.351562 432.632812 C 240.90625 433.976562 242.203125 434.8125 243.546875 434.8125 C 243.964844 434.8125 244.429688 434.71875 244.847656 434.535156 C 246.609375 433.792969 247.488281 431.753906 246.746094 429.992188 C 244.152344 423.457031 242.808594 416.503906 242.808594 409.363281 Z M 246.144531 358.929688 C 246.144531 354.34375 249.851562 350.632812 254.441406 350.632812 C 255.878906 350.632812 257.269531 351.003906 258.519531 351.699219 C 257.6875 353.183594 256.851562 354.621094 256.019531 356.105469 C 252.171875 362.964844 248.878906 369.316406 246.144531 375.15625 Z M 246.144531 358.929688 " fill-opacity="1" fill-rule="nonzero"/></g></svg>