<svg xmlns="http://www.w3.org/2000/svg" xmlns:xlink="http://www.w3.org/1999/xlink" width="793" zoomAndPan="magnify" viewBox="0 0 594.95996 842.24997" height="1122" preserveAspectRatio="xMidYMid meet" version="1.0"><defs><clipPath id="f2dbbb8dc7"><path d="M 192.308594 252.125 L 402.6875 252.125 L 402.6875 588.28125 L 192.308594 588.28125 Z M 192.308594 252.125 " clip-rule="nonzero"/></clipPath><clipPath id="ee432f0854"><path d="M 192.308594 252.125 L 402.6875 252.125 L 402.6875 588.28125 L 192.308594 588.28125 Z M 192.308594 252.125 " clip-rule="nonzero"/></clipPath></defs><g clip-path="url(#f2dbbb8dc7)"><path fill="#d32f2f" d="M 303.628906 255.710938 C 303.460938 255.457031 303.28125 255.210938 303.089844 254.980469 C 302.894531 254.75 302.683594 254.53125 302.460938 254.324219 C 302.238281 254.117188 302.003906 253.925781 301.757812 253.75 C 301.511719 253.574219 301.257812 253.414062 300.988281 253.269531 C 300.722656 253.125 300.449219 252.996094 300.167969 252.886719 C 299.886719 252.777344 299.597656 252.683594 299.304688 252.609375 C 299.007812 252.535156 298.710938 252.476562 298.410156 252.441406 C 298.109375 252.402344 297.808594 252.382812 297.503906 252.382812 C 297.203125 252.382812 296.902344 252.402344 296.601562 252.441406 C 296.300781 252.476562 296 252.535156 295.707031 252.609375 C 295.414062 252.683594 295.125 252.777344 294.84375 252.886719 C 294.5625 252.996094 294.289062 253.125 294.019531 253.269531 C 293.753906 253.414062 293.5 253.574219 293.253906 253.75 C 293.007812 253.925781 292.773438 254.117188 292.550781 254.324219 C 292.328125 254.53125 292.117188 254.75 291.921875 254.980469 C 291.726562 255.210938 291.546875 255.457031 291.382812 255.710938 C 287.332031 262.949219 192.308594 433.578125 192.308594 483.234375 C 192.308594 484.953125 192.351562 486.671875 192.433594 488.386719 C 192.519531 490.105469 192.644531 491.820312 192.816406 493.53125 C 192.984375 495.242188 193.195312 496.945312 193.445312 498.648438 C 193.699219 500.347656 193.992188 502.039062 194.328125 503.726562 C 194.664062 505.414062 195.042969 507.089844 195.460938 508.757812 C 195.878906 510.425781 196.339844 512.082031 196.839844 513.726562 C 197.335938 515.371094 197.878906 517.003906 198.457031 518.621094 C 199.039062 520.242188 199.65625 521.84375 200.316406 523.433594 C 200.972656 525.023438 201.671875 526.59375 202.40625 528.148438 C 203.144531 529.703125 203.917969 531.238281 204.730469 532.753906 C 205.539062 534.269531 206.390625 535.765625 207.273438 537.238281 C 208.160156 538.714844 209.078125 540.164062 210.035156 541.59375 C 210.992188 543.023438 211.984375 544.429688 213.007812 545.8125 C 214.035156 547.191406 215.09375 548.546875 216.1875 549.875 C 217.277344 551.203125 218.402344 552.507812 219.558594 553.78125 C 220.714844 555.054688 221.902344 556.296875 223.117188 557.515625 C 224.335938 558.730469 225.582031 559.914062 226.855469 561.070312 C 228.132812 562.222656 229.4375 563.347656 230.765625 564.4375 C 232.097656 565.527344 233.453125 566.585938 234.835938 567.609375 C 236.21875 568.632812 237.625 569.625 239.058594 570.578125 C 240.488281 571.535156 241.945312 572.453125 243.421875 573.335938 C 244.898438 574.222656 246.394531 575.066406 247.914062 575.878906 C 249.429688 576.6875 250.96875 577.460938 252.523438 578.195312 C 254.082031 578.933594 255.652344 579.628906 257.242188 580.285156 C 258.835938 580.945312 260.441406 581.5625 262.0625 582.140625 C 263.683594 582.722656 265.316406 583.261719 266.964844 583.757812 C 268.609375 584.257812 270.269531 584.714844 271.941406 585.132812 C 273.609375 585.550781 275.289062 585.929688 276.976562 586.265625 C 278.664062 586.597656 280.359375 586.894531 282.0625 587.144531 C 283.765625 587.398438 285.476562 587.609375 287.1875 587.777344 C 288.902344 587.945312 290.617188 588.070312 292.335938 588.15625 C 294.054688 588.242188 295.777344 588.28125 297.5 588.28125 C 299.21875 588.28125 300.941406 588.242188 302.660156 588.15625 C 304.378906 588.070312 306.097656 587.945312 307.808594 587.777344 C 309.523438 587.609375 311.230469 587.398438 312.933594 587.144531 C 314.636719 586.894531 316.332031 586.597656 318.019531 586.265625 C 319.707031 585.929688 321.386719 585.550781 323.058594 585.132812 C 324.726562 584.714844 326.386719 584.257812 328.035156 583.757812 C 329.679688 583.261719 331.316406 582.722656 332.9375 582.140625 C 334.558594 581.5625 336.164062 580.945312 337.753906 580.285156 C 339.34375 579.628906 340.917969 578.933594 342.472656 578.195312 C 344.03125 577.460938 345.566406 576.6875 347.085938 575.878906 C 348.601562 575.066406 350.101562 574.222656 351.578125 573.335938 C 353.054688 572.453125 354.507812 571.535156 355.9375 570.578125 C 357.371094 569.625 358.777344 568.632812 360.160156 567.609375 C 361.542969 566.585938 362.898438 565.527344 364.230469 564.4375 C 365.5625 563.347656 366.863281 562.222656 368.140625 561.070312 C 369.414062 559.914062 370.660156 558.730469 371.878906 557.515625 C 373.097656 556.296875 374.28125 555.054688 375.4375 553.78125 C 376.59375 552.507812 377.71875 551.203125 378.8125 549.875 C 379.902344 548.546875 380.960938 547.191406 381.988281 545.8125 C 383.011719 544.429688 384.003906 543.023438 384.960938 541.59375 C 385.917969 540.164062 386.839844 538.714844 387.722656 537.238281 C 388.609375 535.765625 389.457031 534.269531 390.269531 532.753906 C 391.078125 531.238281 391.851562 529.703125 392.589844 528.148438 C 393.324219 526.59375 394.023438 525.023438 394.679688 523.433594 C 395.339844 521.84375 395.960938 520.242188 396.539062 518.621094 C 397.121094 517.003906 397.660156 515.371094 398.160156 513.726562 C 398.660156 512.082031 399.117188 510.425781 399.535156 508.757812 C 399.953125 507.089844 400.332031 505.414062 400.667969 503.726562 C 401.003906 502.039062 401.296875 500.347656 401.550781 498.648438 C 401.800781 496.945312 402.011719 495.242188 402.183594 493.53125 C 402.351562 491.820312 402.476562 490.105469 402.5625 488.386719 C 402.644531 486.671875 402.6875 484.953125 402.6875 483.234375 C 402.6875 433.578125 307.667969 262.949219 303.628906 255.710938 Z M 303.628906 255.710938 " fill-opacity="1" fill-rule="nonzero"/></g><path fill="#e57373" d="M 297.5 546.261719 C 295.429688 546.261719 293.371094 546.160156 291.3125 545.960938 C 289.253906 545.757812 287.214844 545.453125 285.1875 545.050781 C 283.160156 544.648438 281.15625 544.148438 279.175781 543.546875 C 277.199219 542.949219 275.253906 542.253906 273.347656 541.464844 C 271.4375 540.675781 269.570312 539.792969 267.746094 538.820312 C 265.925781 537.847656 264.152344 536.789062 262.433594 535.640625 C 260.714844 534.492188 259.058594 533.265625 257.460938 531.957031 C 255.863281 530.644531 254.332031 529.261719 252.871094 527.800781 C 251.410156 526.34375 250.023438 524.8125 248.710938 523.21875 C 247.398438 521.621094 246.167969 519.964844 245.019531 518.25 C 243.871094 516.535156 242.8125 514.765625 241.835938 512.945312 C 240.863281 511.125 239.980469 509.261719 239.1875 507.351562 C 238.398438 505.445312 237.703125 503.503906 237.101562 501.53125 C 236.503906 499.554688 236 497.554688 235.597656 495.53125 C 235.195312 493.503906 234.890625 491.464844 234.6875 489.410156 C 234.484375 487.355469 234.382812 485.296875 234.382812 483.234375 C 234.382812 482.773438 234.429688 482.316406 234.519531 481.867188 C 234.609375 481.414062 234.742188 480.976562 234.917969 480.554688 C 235.09375 480.128906 235.3125 479.722656 235.566406 479.34375 C 235.820312 478.960938 236.113281 478.605469 236.4375 478.28125 C 236.765625 477.957031 237.117188 477.664062 237.5 477.410156 C 237.882812 477.15625 238.289062 476.9375 238.714844 476.761719 C 239.140625 476.585938 239.578125 476.453125 240.027344 476.363281 C 240.480469 476.273438 240.9375 476.230469 241.398438 476.230469 C 241.859375 476.230469 242.3125 476.273438 242.765625 476.363281 C 243.21875 476.453125 243.65625 476.585938 244.082031 476.761719 C 244.507812 476.9375 244.910156 477.15625 245.292969 477.410156 C 245.675781 477.664062 246.03125 477.957031 246.355469 478.28125 C 246.679688 478.605469 246.972656 478.960938 247.226562 479.34375 C 247.484375 479.722656 247.699219 480.128906 247.875 480.554688 C 248.050781 480.976562 248.183594 481.414062 248.273438 481.867188 C 248.363281 482.316406 248.410156 482.773438 248.410156 483.234375 C 248.410156 484.839844 248.488281 486.441406 248.644531 488.039062 C 248.804688 489.636719 249.039062 491.222656 249.351562 492.796875 C 249.667969 494.371094 250.058594 495.925781 250.523438 497.464844 C 250.992188 499 251.53125 500.511719 252.148438 501.992188 C 252.761719 503.476562 253.449219 504.925781 254.207031 506.34375 C 254.964844 507.757812 255.789062 509.132812 256.683594 510.46875 C 257.574219 511.804688 258.53125 513.089844 259.550781 514.332031 C 260.574219 515.574219 261.652344 516.761719 262.789062 517.898438 C 263.925781 519.03125 265.113281 520.109375 266.355469 521.128906 C 267.601562 522.148438 268.890625 523.101562 270.226562 523.996094 C 271.5625 524.886719 272.941406 525.710938 274.359375 526.46875 C 275.777344 527.222656 277.226562 527.910156 278.714844 528.523438 C 280.199219 529.140625 281.710938 529.679688 283.25 530.144531 C 284.789062 530.609375 286.34375 531 287.921875 531.3125 C 289.5 531.628906 291.085938 531.863281 292.6875 532.019531 C 294.285156 532.175781 295.890625 532.257812 297.5 532.257812 C 297.960938 532.257812 298.414062 532.300781 298.867188 532.390625 C 299.316406 532.480469 299.757812 532.613281 300.183594 532.789062 C 300.609375 532.964844 301.011719 533.179688 301.394531 533.4375 C 301.777344 533.691406 302.132812 533.980469 302.457031 534.308594 C 302.78125 534.632812 303.074219 534.984375 303.328125 535.367188 C 303.585938 535.75 303.800781 536.15625 303.976562 536.578125 C 304.152344 537.003906 304.285156 537.441406 304.375 537.894531 C 304.464844 538.34375 304.511719 538.800781 304.511719 539.257812 C 304.511719 539.71875 304.464844 540.175781 304.375 540.625 C 304.285156 541.078125 304.152344 541.515625 303.976562 541.9375 C 303.800781 542.363281 303.585938 542.769531 303.328125 543.148438 C 303.074219 543.53125 302.78125 543.886719 302.457031 544.210938 C 302.132812 544.535156 301.777344 544.828125 301.394531 545.082031 C 301.011719 545.335938 300.609375 545.554688 300.183594 545.730469 C 299.757812 545.90625 299.316406 546.039062 298.867188 546.128906 C 298.414062 546.21875 297.960938 546.261719 297.5 546.261719 Z M 297.5 546.261719 " fill-opacity="1" fill-rule="nonzero"/><g clip-path="url(#ee432f0854)"><path stroke-linecap="round" transform="matrix(14.025339, 0, 0, 14.006622, 129.194493, 252.123635)" fill="none" stroke-linejoin="round" d="M 12.000103 23.499863 C 11.885355 23.499863 11.770886 23.496796 11.656695 23.491218 C 11.542226 23.485361 11.428035 23.476995 11.314123 23.465561 C 11.200211 23.454126 11.086578 23.440182 10.973222 23.42317 C 10.860146 23.406158 10.747348 23.386636 10.634828 23.364046 C 10.522587 23.341735 10.410903 23.316635 10.299776 23.288747 C 10.188649 23.260858 10.078358 23.230181 9.968902 23.196714 C 9.859446 23.163527 9.750547 23.127551 9.642762 23.088786 C 9.534977 23.050299 9.428307 23.009024 9.322471 22.96496 C 9.216636 22.921175 9.111915 22.874601 9.008586 22.825796 C 8.904979 22.776712 8.802765 22.725118 8.701664 22.671014 C 8.600842 22.617189 8.501134 22.560576 8.403097 22.501731 C 8.304782 22.442886 8.208138 22.381531 8.112886 22.317945 C 8.017634 22.25408 7.924054 22.188263 7.832144 22.119936 C 7.740235 22.051888 7.649996 21.98133 7.561429 21.90854 C 7.472861 21.83603 7.386244 21.761289 7.301297 21.684316 C 7.21635 21.607344 7.133632 21.528419 7.052584 21.447542 C 6.971537 21.366386 6.892717 21.283557 6.815847 21.198776 C 6.738699 21.113715 6.664057 21.027261 6.591365 20.938575 C 6.518673 20.850168 6.448209 20.759809 6.379973 20.667777 C 6.311737 20.576023 6.24573 20.482318 6.182229 20.387218 C 6.118449 20.291839 6.057176 20.195065 5.998409 20.096897 C 5.939365 19.998729 5.882826 19.899167 5.828795 19.79821 C 5.774763 19.697254 5.723238 19.594903 5.674219 19.491436 C 5.625201 19.387969 5.578968 19.283387 5.534963 19.17741 C 5.490957 19.071713 5.449737 18.964899 5.411302 18.857249 C 5.372589 18.74932 5.336661 18.640555 5.303239 18.531232 C 5.269817 18.421629 5.239181 18.311191 5.21133 18.200194 C 5.183478 18.089197 5.158133 17.977364 5.135852 17.864973 C 5.113293 17.752861 5.093797 17.639912 5.076807 17.526684 C 5.059818 17.413457 5.045892 17.29995 5.034473 17.185886 C 5.023054 17.071821 5.01442 16.957757 5.00885 16.843414 C 5.003001 16.729071 5.000216 16.614449 4.999938 16.500105 C 4.999938 13.043872 12.000103 0.499861 12.000103 0.499861 C 12.000103 0.499861 18.999989 13.043872 18.999989 16.500105 C 18.999989 16.614449 18.996926 16.729071 18.991077 16.843414 C 18.985507 16.957757 18.976873 17.071821 18.965454 17.185886 C 18.954313 17.29995 18.940109 17.413457 18.923119 17.526684 C 18.906409 17.639912 18.886634 17.752861 18.864074 17.864973 C 18.841793 17.977364 18.816449 18.089197 18.788597 18.200194 C 18.760746 18.311191 18.730109 18.421629 18.696688 18.531232 C 18.663545 18.640555 18.627616 18.74932 18.588903 18.857249 C 18.550189 18.964899 18.508969 19.071713 18.464964 19.17741 C 18.421238 19.283387 18.374726 19.387969 18.325707 19.491436 C 18.276689 19.594903 18.225164 19.697254 18.171132 19.79821 C 18.117101 19.899167 18.060562 19.998729 18.001796 20.096897 C 17.942751 20.195065 17.881478 20.291839 17.817698 20.387218 C 17.754197 20.482318 17.688189 20.576023 17.619953 20.667777 C 17.551718 20.759809 17.481254 20.850168 17.408562 20.938575 C 17.335869 21.027261 17.261228 21.113715 17.184358 21.198776 C 17.10721 21.283557 17.02839 21.366386 16.947343 21.447542 C 16.866295 21.528419 16.783577 21.607344 16.69863 21.684316 C 16.613683 21.761289 16.527065 21.83603 16.438498 21.90854 C 16.350209 21.98133 16.259971 22.051609 16.167783 22.119936 C 16.075873 22.188263 15.982293 22.25408 15.887041 22.317945 C 15.791789 22.381531 15.695145 22.442886 15.597108 22.501731 C 15.498793 22.560576 15.399085 22.617189 15.298263 22.671014 C 15.197162 22.725118 15.094948 22.776712 14.991341 22.825796 C 14.888012 22.874601 14.783291 22.921175 14.677456 22.96496 C 14.571899 23.009024 14.46495 23.050299 14.357165 23.088786 C 14.24938 23.127551 14.14076 23.163527 14.031025 23.196714 C 13.921569 23.230181 13.811278 23.260858 13.700151 23.288747 C 13.589024 23.316635 13.47734 23.341735 13.365099 23.364046 C 13.252858 23.386636 13.14006 23.406158 13.026704 23.42317 C 12.913349 23.440182 12.799716 23.454126 12.685804 23.465561 C 12.571891 23.476995 12.457701 23.485361 12.343232 23.491218 C 12.229041 23.496796 12.114572 23.499863 12.000103 23.499863 Z M 12.000103 23.499863 " stroke="#000000" stroke-width="1" stroke-opacity="1" stroke-miterlimit="4"/></g><path stroke-linecap="round" transform="matrix(14.025339, 0, 0, 14.006622, 129.194493, 252.123635)" fill="none" stroke-linejoin="round" d="M 12.000103 20.499887 C 11.868923 20.499887 11.7383 20.493473 11.607955 20.480644 C 11.477611 20.467816 11.348102 20.448572 11.219707 20.423194 C 11.091034 20.397536 10.96431 20.365743 10.838979 20.327815 C 10.713369 20.289607 10.590266 20.245543 10.469391 20.195623 C 10.348238 20.145423 10.229869 20.089367 10.114286 20.027734 C 9.998981 19.965821 9.88674 19.898609 9.777841 19.82582 C 9.668664 19.753031 9.563664 19.675222 9.462564 19.592114 C 9.361185 19.509006 9.264262 19.421157 9.171517 19.328288 C 9.07905 19.235697 8.99104 19.138924 8.908043 19.037688 C 8.824767 18.936174 8.746783 18.831313 8.674091 18.722268 C 8.601399 18.613224 8.533999 18.501112 8.472447 18.385653 C 8.410617 18.269915 8.354636 18.151668 8.304503 18.030631 C 8.254371 17.909595 8.210366 17.786606 8.172209 17.661107 C 8.134332 17.535888 8.102302 17.408716 8.076958 17.280428 C 8.051334 17.151862 8.032117 17.022459 8.019305 16.89194 C 8.006494 16.7617 8.000088 16.630903 8.000088 16.500105 " stroke="#000000" stroke-width="1" stroke-opacity="1" stroke-miterlimit="4"/></svg>